<svg xmlns="http://www.w3.org/2000/svg" viewBox="0 0 18 18"><defs><style>.cls-1{fill:#ccc;}.cls-2{fill:#464646;}.cls-3{fill:#fff;}</style></defs><title>Ball</title><g id="Capa_2" data-name="Capa 2"><g id="Capa_1-2" data-name="Capa 1"><g id="Layer0_2_FILL" data-name="Layer0 2 FILL"><path class="cls-1" d="M15.35,2.6l-.15-.15A8.74,8.74,0,0,0,9,0,8.83,8.83,0,0,0,2.65,2.55l-.1.1A8.83,8.83,0,0,0,0,9a8.65,8.65,0,0,0,2.6,6.35A8.71,8.71,0,0,0,9,18a8.48,8.48,0,0,0,6.3-2.65,0,0,0,0,1,0,0A8.48,8.48,0,0,0,18,9a8.71,8.71,0,0,0-2.65-6.4m-1.75,1A4.17,4.17,0,0,1,14,4,6.88,6.88,0,0,1,16.1,9,6.55,6.55,0,0,1,14,14,6.67,6.67,0,0,1,9.4,16.1H9a6.78,6.78,0,0,1-4.6-1.7A2.4,2.4,0,0,1,4,14,6.62,6.62,0,0,1,1.9,9,7,7,0,0,1,4,4a7,7,0,0,1,4.4-2A4.4,4.4,0,0,1,9,1.9,6.78,6.78,0,0,1,13.6,3.6Z"/><path class="cls-2" d="M5.85,13.25,4.4,14.4A6.78,6.78,0,0,0,9,16.1h.4l-.7-1.9-2.85-.95m.7-7.6L3.8,6.1,3.25,9l1.6,1.6L7.4,8.35l-.85-2.7m7.05,6.5,1-3.1L12.4,7.5,10.3,9.6l.55,2.75,2.75-.2m-1.85-7.3L13.6,3.6A6.78,6.78,0,0,0,9,1.9,4.4,4.4,0,0,0,8.35,2l.35,1.8Z"/><path class="cls-3" d="M13.6,3.6,11.75,4.85,8.7,3.75,8.35,2A7,7,0,0,0,4,4,7,7,0,0,0,1.9,9,6.62,6.62,0,0,0,4,14a2.4,2.4,0,0,0,.45.45l1.45-1.15,2.85.95.7,1.9A6.67,6.67,0,0,0,14,14,6.55,6.55,0,0,0,16.1,9,6.88,6.88,0,0,0,14,4a4.17,4.17,0,0,0-.4-.35m1,5.45-1,3.1-2.75.2L10.3,9.6l2.1-2.1,2.2,1.55M3.8,6.1l2.75-.45.85,2.7-2.55,2.2L3.25,9Z"/></g></g></g></svg>
