<svg xmlns="http://www.w3.org/2000/svg" viewBox="0 0 20.5 30.7"><defs><style>.cls-1{fill:#c4a26f;}.cls-2{fill:#ffe0b1;}.cls-3{fill:#419fdd;}.cls-4{fill:#2d74a3;}.cls-5{fill:#bbb06f;}.cls-6{fill:#83793f;}</style></defs><g id="Capa_2" data-name="Capa 2"><g id="Capa_1-2" data-name="Capa 1"><g id="Layer0_22_FILL" data-name="Layer0 22 FILL"><path class="cls-1" d="M3.75,9.85h-2a3.19,3.19,0,0,1-.55,1.4v.05A6.71,6.71,0,0,0,0,15.3v.1a7,7,0,0,0,1.15,4,3.19,3.19,0,0,1,.55,1.4H3.75a5.47,5.47,0,0,0-1-2.55,5.4,5.4,0,0,1-.8-3,5.4,5.4,0,0,1,.8-2.95A5.47,5.47,0,0,0,3.75,9.85Z"/><path class="cls-2" d="M4.2,9.35a5.07,5.07,0,0,1-.45.5,5.47,5.47,0,0,1-1,2.55A5.4,5.4,0,0,0,2,15.35a5.4,5.4,0,0,0,.8,3,5.47,5.47,0,0,1,1,2.55,5.07,5.07,0,0,1,.45.5A7.29,7.29,0,0,0,7.5,23.3l.4.1c-.4-.5-.28-1.28.35-2.35a1.17,1.17,0,0,0,.2-.35,4.22,4.22,0,0,1-.95-.2,5.56,5.56,0,0,1-2.1-1.35,5.25,5.25,0,0,1,0-7.55,5,5,0,0,1,2.1-1.3,5.06,5.06,0,0,1,1-.2,2.92,2.92,0,0,0-.25-.4Q7.25,8,8,7.3l-.45.1A7.29,7.29,0,0,0,4.2,9.35Z"/><path class="cls-3" d="M15.35,22.15A8.11,8.11,0,0,1,10.05,24a2.91,2.91,0,0,1-2.15-.6l-.4-.1a7.29,7.29,0,0,1-3.3-1.95,5.07,5.07,0,0,0-.45-.5V23a5.6,5.6,0,0,0,1.7,4.1,5.38,5.38,0,0,0,2.05,1.3,6,6,0,0,0,2.05.35,5.67,5.67,0,0,0,4.1-1.65,5.6,5.6,0,0,0,1.7-4.1v-.8M9.55,2a6,6,0,0,0-2.05.35,5.38,5.38,0,0,0-2,1.3,5.6,5.6,0,0,0-1.7,4.1v2.1a5.07,5.07,0,0,0,.45-.5A7.29,7.29,0,0,1,7.5,7.4L8,7.3a3,3,0,0,1,2.1-.55,8.11,8.11,0,0,1,5.3,1.85V7.75a5.6,5.6,0,0,0-1.7-4.1A5.67,5.67,0,0,0,9.55,2Z"/><path class="cls-4" d="M15.35,22.15V23a5.6,5.6,0,0,1-1.7,4.1,5.67,5.67,0,0,1-4.1,1.65,6,6,0,0,1-2.05-.35,5.38,5.38,0,0,1-2-1.3A5.6,5.6,0,0,1,3.75,23v-2.1h-2a.62.62,0,0,1,.05.25V23A7.64,7.64,0,0,0,4,28.5h0a7.73,7.73,0,0,0,5.5,2.2,7.68,7.68,0,0,0,7.8-7.65l-2-.9M4,2.25a7.48,7.48,0,0,0-2.25,5.5v1.9a.49.49,0,0,1-.05.2H3.75V7.75a5.6,5.6,0,0,1,1.7-4.1A5.38,5.38,0,0,1,7.5,2.35,6,6,0,0,1,9.55,2a5.67,5.67,0,0,1,4.1,1.65,5.6,5.6,0,0,1,1.7,4.1V8.6l2-.85,0,0a7.36,7.36,0,0,0-2.3-5.45A7.59,7.59,0,0,0,9.55,0,7.89,7.89,0,0,0,7.5.25a7.7,7.7,0,0,0-3.45,2Z"/><path class="cls-5" d="M18.1,12.65A8.65,8.65,0,0,0,16,9.2c-.2-.2-.42-.4-.65-.6a8.11,8.11,0,0,0-5.3-1.85A3,3,0,0,0,8,7.3q-.7.7.3,2.4a2.92,2.92,0,0,1,.25.4,5.06,5.06,0,0,0-1,.2,5,5,0,0,0-2.1,1.3,5.25,5.25,0,0,0,0,7.55A5.56,5.56,0,0,0,7.5,20.5a4.22,4.22,0,0,0,.95.2,1.17,1.17,0,0,1-.2.35c-.63,1.07-.75,1.85-.35,2.35a2.91,2.91,0,0,0,2.15.6,8.11,8.11,0,0,0,5.3-1.85c.23-.2.45-.4.65-.6a8.38,8.38,0,0,0,2.1-3.35,8.54,8.54,0,0,0,.4-2.65V15.2A7.92,7.92,0,0,0,18.1,12.65Z"/><path class="cls-6" d="M15.35,8.6c.23.2.45.4.65.6a8.65,8.65,0,0,1,2.1,3.45,7.92,7.92,0,0,1,.4,2.55v.35a8.54,8.54,0,0,1-.4,2.65A8.38,8.38,0,0,1,16,21.55c-.2.2-.42.4-.65.6l2,.9,0-.05A10.1,10.1,0,0,0,20,18.8a10.3,10.3,0,0,0,.5-3.25V15.2a9.72,9.72,0,0,0-.5-3.15A9.61,9.61,0,0,0,17.4,7.8v0Z"/></g></g></g></svg>