<svg xmlns="http://www.w3.org/2000/svg" viewBox="0 0 20.5 30.7"><defs><style>.cls-1{fill:#239f58;}.cls-2{fill:#2ecc71;}.cls-3{fill:#7e5125;}.cls-4{fill:#c4a26f;}.cls-5{fill:#bb8044;}.cls-6{fill:#ffe0b1;}.cls-7{fill:#219a55;}</style></defs><title>Defender</title><g id="Capa_2" data-name="Capa 2"><g id="Capa_1-2" data-name="Capa 1"><g id="Layer0_23_FILL" data-name="Layer0 23 FILL"><path class="cls-1" d="M5.15,23v-.8l-2,.9A7.85,7.85,0,0,0,4,26.5a9,9,0,0,0,1.45,2A7.66,7.66,0,0,0,11,30.7a7.73,7.73,0,0,0,5.5-2.2h.05A7.64,7.64,0,0,0,18.75,23V21.1a.62.62,0,0,1,.05-.25H16.75V23a5.6,5.6,0,0,1-1.7,4.1A5.38,5.38,0,0,1,13,28.35,6,6,0,0,1,11,28.7a5.67,5.67,0,0,1-4.1-1.65c-.17-.17-.33-.35-.5-.55A5.64,5.64,0,0,1,5.15,23Z"/><path class="cls-2" d="M5.15,22.15V23a5.64,5.64,0,0,0,1.2,3.55c.17.2.33.38.5.55A5.67,5.67,0,0,0,11,28.7,6,6,0,0,0,13,28.35a5.38,5.38,0,0,0,2.05-1.3,5.6,5.6,0,0,0,1.7-4.1v-2.1a5.07,5.07,0,0,0-.45.5A7.29,7.29,0,0,1,13,23.3l-.4.1A2.41,2.41,0,0,1,11,24h-.55a8.11,8.11,0,0,1-5.3-1.85M11,2H11a5.67,5.67,0,0,0-4.1,1.65,5.6,5.6,0,0,0-1.7,4.1V8.6a8.11,8.11,0,0,1,5.3-1.85,3.12,3.12,0,0,1,.55,0,2.3,2.3,0,0,1,1.55.5l.45.1a7.29,7.29,0,0,1,3.3,1.95,5.07,5.07,0,0,0,.45.5V7.75a5.6,5.6,0,0,0-1.7-4.1A5.38,5.38,0,0,0,13,2.35,5.8,5.8,0,0,0,11,2Z"/><path class="cls-3" d="M3.1,7.8A9.61,9.61,0,0,0,.5,12.05,9.72,9.72,0,0,0,0,15.2v.35A10.3,10.3,0,0,0,.5,18.8,10.1,10.1,0,0,0,3.1,23l0,.05,2-.9c-.23-.2-.45-.4-.65-.6A8.38,8.38,0,0,1,2.4,18.2,8.54,8.54,0,0,1,2,15.55V15.2a7.92,7.92,0,0,1,.4-2.55A8.65,8.65,0,0,1,4.5,9.2c.2-.2.42-.4.65-.6L3.1,7.75Z"/><path class="cls-4" d="M16.75,9.85a5.47,5.47,0,0,0,.95,2.55,5.4,5.4,0,0,1,.8,2.95,5.4,5.4,0,0,1-.8,3,5.47,5.47,0,0,0-.95,2.55H18.8a3.19,3.19,0,0,1,.55-1.4,7,7,0,0,0,1.15-4v-.1a6.71,6.71,0,0,0-1.15-4v-.05a3.19,3.19,0,0,1-.55-1.4Z"/><path class="cls-5" d="M12.25,9.7q1-1.69.3-2.4A2.3,2.3,0,0,0,11,6.8a3.12,3.12,0,0,0-.55,0A8.11,8.11,0,0,0,5.15,8.6c-.23.2-.45.4-.65.6a8.65,8.65,0,0,0-2.1,3.45A7.92,7.92,0,0,0,2,15.2v.35a8.54,8.54,0,0,0,.4,2.65,8.38,8.38,0,0,0,2.1,3.35c.2.2.42.4.65.6A8.11,8.11,0,0,0,10.45,24H11a2.41,2.41,0,0,0,1.6-.6c.4-.5.28-1.28-.35-2.35a1.17,1.17,0,0,1-.2-.35,4.22,4.22,0,0,0,.95-.2,5.56,5.56,0,0,0,2.1-1.35,5.25,5.25,0,0,0,0-7.55A5,5,0,0,0,13,10.3a5.06,5.06,0,0,0-1-.2A2.92,2.92,0,0,1,12.25,9.7Z"/><path class="cls-6" d="M12.55,7.3q.7.7-.3,2.4a2.92,2.92,0,0,0-.25.4,5.06,5.06,0,0,1,1,.2,5,5,0,0,1,2.1,1.3,5.25,5.25,0,0,1,0,7.55A5.56,5.56,0,0,1,13,20.5a4.22,4.22,0,0,1-.95.2,1.17,1.17,0,0,0,.2.35c.63,1.07.75,1.85.35,2.35l.4-.1a7.29,7.29,0,0,0,3.3-1.95,5.07,5.07,0,0,1,.45-.5,5.47,5.47,0,0,1,.95-2.55,5.4,5.4,0,0,0,.8-3,5.4,5.4,0,0,0-.8-2.95,5.47,5.47,0,0,1-.95-2.55,5.07,5.07,0,0,1-.45-.5A7.29,7.29,0,0,0,13,7.4Z"/><path class="cls-7" d="M11,0H11a7.59,7.59,0,0,0-5.5,2.25A7.36,7.36,0,0,0,3.15,7.7l0,0,2.05.85V7.75a5.6,5.6,0,0,1,1.7-4.1A5.67,5.67,0,0,1,11,2H11a5.8,5.8,0,0,1,2,.35,5.38,5.38,0,0,1,2.05,1.3,5.6,5.6,0,0,1,1.7,4.1v2.1H18.8a.49.49,0,0,1-.05-.2V7.75a7.48,7.48,0,0,0-2.25-5.5h-.05A7.55,7.55,0,0,0,11,0Z"/></g></g></g></svg>