<svg xmlns="http://www.w3.org/2000/svg" viewBox="0 0 18.1 13"><defs><style>.cls-1{fill:#c4a26f;}.cls-2{fill:#2ecc71;}.cls-3{fill:#ffe0b1;}.cls-4{fill:#219a55;}.cls-5{fill:#2c2a2a;}.cls-6{fill:#3f3b3b;}</style></defs><title>Defender Leg</title><g id="Capa_2" data-name="Capa 2"><g id="Capa_1-2" data-name="Capa 1"><g id="Layer0_90_FILL" data-name="Layer0 90 FILL"><path class="cls-1" d="M11.8,12V10H7.2l1.2,2h3.4m0-9V1H8.4L7.15,3Z"/><path class="cls-2" d="M7,2.55c-.1-.2-.2-.38-.3-.55H2v9H6.65A6.21,6.21,0,0,0,7,10.4l.2-.4a7.93,7.93,0,0,0,0-7C7.08,2.87,7,2.72,7,2.55Z"/><path class="cls-3" d="M11.8,3H7.15a7.93,7.93,0,0,1,0,7h4.6C13.43,7.87,13.43,5.53,11.8,3Z"/><path class="cls-4" d="M.6.6A1.82,1.82,0,0,0,0,2v9a2,2,0,0,0,.6,1.45A1.88,1.88,0,0,0,2,13H6.65a2.38,2.38,0,0,0,.95-.2,2.18,2.18,0,0,0,.75-.7A.16.16,0,0,1,8.4,12L7.2,10l-.2.4a6.21,6.21,0,0,1-.35.6H2V2H6.65c.1.17.2.35.3.55s.13.32.2.45L8.4,1A2.07,2.07,0,0,0,7.65.25a2.18,2.18,0,0,0-1-.25H2A1.82,1.82,0,0,0,.6.6Z"/><path class="cls-5" d="M14.8,10c1.63-2.13,1.63-4.47,0-7h-3c1.63,2.53,1.63,4.87,0,7Z"/><path class="cls-6" d="M15.75,1.25A1.9,1.9,0,0,0,14.8,1h-3V3h3c1.63,2.53,1.63,4.87,0,7h-3v2h3a2.26,2.26,0,0,0,.9-.2,2.19,2.19,0,0,0,.7-.55q3.34-4.3.1-9.3A2.18,2.18,0,0,0,15.75,1.25Z"/></g></g></g></svg>