<?xml version="1.0" encoding="utf-8"?>
<!-- Generator: Adobe Illustrator 25.0.0, SVG Export Plug-In . SVG Version: 6.00 Build 0)  -->
<svg version="1.1" id="Capa_1" xmlns="http://www.w3.org/2000/svg" xmlns:xlink="http://www.w3.org/1999/xlink" x="0px" y="0px"
	 viewBox="0 0 20.5 30.7" style="enable-background:new 0 0 20.5 30.7;" xml:space="preserve">
<style type="text/css">
	.st0{fill:#239F58;}
	.st1{fill:#2ECC71;}
	.st2{fill:#7E5125;}
	.st3{fill:#C4A26F;}
	.st4{fill:#BB8044;}
	.st5{fill:#FFE0B1;}
	.st6{fill:#219A55;}
</style>
<g id="Capa_2_1_">
	<g id="Capa_1-2">
		<g id="Layer0_23_FILL">
			<path class="st0" d="M14.1,26.5c-0.2,0.2-0.3,0.4-0.5,0.5c-1.1,1.1-2.6,1.7-4.1,1.6c-0.7,0-1.4-0.1-2-0.4
				c-0.8-0.3-1.5-0.7-2.1-1.3C4.3,26,3.7,24.5,3.8,23v-2.1h-2c0,0.1,0.1,0.2,0,0.3V23c0,2.1,0.8,4,2.2,5.5h0
				c1.5,1.4,3.4,2.2,5.5,2.2c2.1,0,4.1-0.7,5.6-2.2c0.6-0.6,1.1-1.3,1.4-2c0.5-1.1,0.8-2.2,0.9-3.4l-2-0.9V23
				C15.3,24.3,14.9,25.5,14.1,26.5z"/>
			<path class="st1" d="M15.4,22.1C13.9,23.4,12,24,10.1,24H9.5c-0.6,0-1.2-0.2-1.6-0.6l-0.4-0.1c-1.3-0.3-2.4-1-3.3-1.9
				c-0.1-0.2-0.3-0.3-0.5-0.5V23c0,1.5,0.6,3,1.7,4.1c0.6,0.6,1.3,1,2.1,1.3c0.6,0.2,1.3,0.3,2,0.4c1.5,0.1,3-0.5,4.1-1.6
				c0.2-0.2,0.3-0.3,0.5-0.5c0.8-1,1.2-2.3,1.2-3.5L15.4,22.1 M7.5,2.3C6.7,2.6,6,3.1,5.4,3.7C4.3,4.7,3.7,6.2,3.7,7.8v2.1
				C3.9,9.6,4,9.5,4.2,9.3c0.9-0.9,2-1.6,3.3-1.9l0.4-0.1c0.4-0.4,1-0.5,1.6-0.5c0.2,0,0.4,0,0.6,0c1.9,0,3.8,0.6,5.3,1.8V7.8
				c0-1.5-0.6-3-1.7-4.1C12.5,2.6,11,2,9.5,2l0,0C8.8,2,8.1,2.1,7.5,2.3z"/>
			<path class="st2" d="M17.4,7.8l-2.1,0.8C15.6,8.8,15.8,9,16,9.2c1,1,1.7,2.2,2.1,3.4c0.3,0.8,0.4,1.7,0.4,2.6v0.4
				c0,0.9-0.1,1.8-0.4,2.7c-0.4,1.3-1.1,2.4-2.1,3.3c-0.2,0.2-0.4,0.4-0.6,0.6l2,0.9v0c1.2-1.2,2.1-2.6,2.6-4.2
				c0.3-1,0.5-2.1,0.5-3.2v-0.4c0-1.1-0.2-2.1-0.5-3.1C19.5,10.4,18.6,9,17.4,7.8L17.4,7.8z"/>
			<path class="st3" d="M1.7,9.9c-0.1,0.5-0.3,1-0.5,1.4v0.1C0.4,12.6,0,14,0,15.4v0.1c0,1.4,0.4,2.8,1.1,4c0.3,0.4,0.5,0.9,0.5,1.4
				h2c-0.1-0.9-0.4-1.8-1-2.5c-0.6-0.9-0.8-1.9-0.8-3c0-1,0.3-2.1,0.8-2.9c0.5-0.8,0.9-1.6,1-2.6L1.7,9.9z"/>
			<path class="st4" d="M8.5,10.1c-0.3,0-0.7,0.1-1,0.2C6.7,10.6,6,11,5.4,11.6c0,0-0.1,0.1-0.1,0.1c-2,2.1-2,5.4,0.1,7.4
				c0.6,0.6,1.3,1.1,2.1,1.4c0.3,0.1,0.6,0.2,0.9,0.2c0,0.1-0.1,0.2-0.2,0.4c-0.6,1.1-0.8,1.9-0.4,2.4c0.4,0.4,1,0.6,1.6,0.6h0.6
				c1.9,0,3.8-0.6,5.3-1.8c0.2-0.2,0.5-0.4,0.7-0.6c1-0.9,1.7-2.1,2.1-3.4c0.3-0.9,0.4-1.8,0.4-2.7v-0.4c0-0.9-0.1-1.7-0.4-2.5
				c-0.4-1.3-1.1-2.5-2.1-3.4c-0.2-0.2-0.4-0.4-0.7-0.6c-1.5-1.2-3.4-1.8-5.3-1.8c-0.2,0-0.4,0-0.6,0C8.9,6.8,8.4,6.9,8,7.3
				C7.5,7.8,7.6,8.6,8.3,9.7C8.3,9.8,8.4,10,8.5,10.1z"/>
			<path class="st5" d="M7.5,7.4c-1.2,0.3-2.4,1-3.3,1.9C4.1,9.5,3.9,9.6,3.8,9.8c-0.1,0.9-0.4,1.8-1,2.6C2.3,13.2,2,14.3,2,15.3
				c0,1.1,0.2,2.1,0.8,3c0.5,0.8,0.9,1.6,1,2.5c0.2,0.2,0.3,0.3,0.5,0.5c0.9,0.9,2,1.6,3.3,2l0.4,0.1c-0.4-0.5-0.3-1.3,0.4-2.4
				c0.1-0.1,0.2-0.2,0.2-0.4c-0.3,0-0.6-0.1-0.9-0.2c-0.8-0.3-1.5-0.7-2.1-1.3c0,0-0.1-0.1-0.1-0.1c-2-2.1-2-5.4,0.1-7.4
				c0.6-0.6,1.3-1,2.1-1.3c0.3-0.1,0.7-0.2,1-0.2C8.4,10,8.3,9.8,8.3,9.7C7.6,8.6,7.5,7.8,8,7.3L7.5,7.4z"/>
			<path class="st6" d="M4.1,2.3L4.1,2.3C2.5,3.7,1.7,5.7,1.8,7.8v1.9c0,0.1,0,0.1,0,0.2h2V7.8c0-1.5,0.6-3,1.7-4.1
				c0.6-0.6,1.3-1,2.1-1.3C8.1,2.1,8.8,2,9.5,2l0,0c1.5,0,3,0.6,4.1,1.7c1.1,1.1,1.7,2.6,1.7,4.1v0.8l2.1-0.9l0,0
				c0-2.1-0.8-4-2.4-5.4C13.6,0.8,11.6,0,9.5,0l0,0C7.5,0,5.5,0.8,4.1,2.3z"/>
		</g>
	</g>
</g>
</svg>
