<svg xmlns="http://www.w3.org/2000/svg" viewBox="0 0 20.5 30.7"><defs><style>.cls-1{fill:#666;}.cls-2{fill:#545454;}.cls-3{fill:#fc0;}.cls-4{fill:#c4a26f;}.cls-5{fill:#ffe0b1;}.cls-6{fill:#bbb06f;}.cls-7{fill:#83793f;}</style></defs><g id="Capa_2" data-name="Capa 2"><g id="Capa_1-2" data-name="Capa 1"><g id="Layer0_73_FILL" data-name="Layer0 73 FILL"><path class="cls-1" d="M3.75,23a5.6,5.6,0,0,0,1.7,4.1,5.38,5.38,0,0,0,2.05,1.3,6,6,0,0,0,2.05.35,5.67,5.67,0,0,0,4.1-1.65,5.6,5.6,0,0,0,1.7-4.1v-.8a1.48,1.48,0,0,1-.35.25,5.51,5.51,0,0,1-1.35,2.15,5.67,5.67,0,0,1-4.1,1.65,6,6,0,0,1-2.05-.35,5.38,5.38,0,0,1-2-1.3,5.59,5.59,0,0,1-1.7-3.65V23M7.5,2.35a5.38,5.38,0,0,0-2,1.3,5.6,5.6,0,0,0-1.7,4.1v2.1a5.65,5.65,0,0,1,1.7-3.7A5.38,5.38,0,0,1,7.5,4.85,6,6,0,0,1,9.55,4.5a5.67,5.67,0,0,1,4.1,1.65,5.6,5.6,0,0,1,1.4,2.25l.3.2V7.75a5.6,5.6,0,0,0-1.7-4.1A5.67,5.67,0,0,0,9.55,2,6,6,0,0,0,7.5,2.35Z"/><path class="cls-2" d="M1.75,20.9V23A7.64,7.64,0,0,0,4,28.5h0a7.73,7.73,0,0,0,5.5,2.2,7.68,7.68,0,0,0,7.8-7.65l-2-.9V23a5.6,5.6,0,0,1-1.7,4.1,5.67,5.67,0,0,1-4.1,1.65,6,6,0,0,1-2.05-.35,5.38,5.38,0,0,1-2-1.3A5.6,5.6,0,0,1,3.75,23V20.9h-2M15.35,7.75V8.6l2-.85,0,0a7.36,7.36,0,0,0-2.3-5.45A7.59,7.59,0,0,0,9.55,0,7.89,7.89,0,0,0,7.5.25a7.7,7.7,0,0,0-3.45,2H4a7.48,7.48,0,0,0-2.25,5.5v1.9a.49.49,0,0,1-.05.2H3.75V7.75a5.6,5.6,0,0,1,1.7-4.1A5.38,5.38,0,0,1,7.5,2.35,6,6,0,0,1,9.55,2a5.67,5.67,0,0,1,4.1,1.65A5.6,5.6,0,0,1,15.35,7.75Z"/><path class="cls-3" d="M7.5,23.3a7.29,7.29,0,0,1-3.3-1.95,2.4,2.4,0,0,0-.45-.45,5.59,5.59,0,0,0,1.7,3.65,5.38,5.38,0,0,0,2.05,1.3,6,6,0,0,0,2.05.35,5.67,5.67,0,0,0,4.1-1.65A5.51,5.51,0,0,0,15,22.4,7.91,7.91,0,0,1,10.05,24a2.91,2.91,0,0,1-2.15-.6l-.4-.1M13.65,6.15A5.67,5.67,0,0,0,9.55,4.5a6,6,0,0,0-2.05.35,5.38,5.38,0,0,0-2,1.3,5.65,5.65,0,0,0-1.7,3.7,5.07,5.07,0,0,0,.45-.5A7.29,7.29,0,0,1,7.5,7.4L8,7.3a3,3,0,0,1,2.1-.55,8,8,0,0,1,5,1.65A5.6,5.6,0,0,0,13.65,6.15Z"/><path class="cls-4" d="M1.15,11.25v.05A6.71,6.71,0,0,0,0,15.3v.1a7,7,0,0,0,1.15,4,3.19,3.19,0,0,1,.55,1.4.12.12,0,0,0,.05,0h2v0a5.47,5.47,0,0,0-1-2.55,5.4,5.4,0,0,1-.8-3,5.4,5.4,0,0,1,.8-2.95,5.47,5.47,0,0,0,1-2.55h-2A3.19,3.19,0,0,1,1.15,11.25Z"/><path class="cls-5" d="M3.75,9.85a5.47,5.47,0,0,1-1,2.55A5.4,5.4,0,0,0,2,15.35a5.4,5.4,0,0,0,.8,3,5.47,5.47,0,0,1,1,2.55v0a2.4,2.4,0,0,1,.45.45A7.29,7.29,0,0,0,7.5,23.3l.4.1q-.6-.75.3-2.25a.16.16,0,0,1,.05-.1,1.17,1.17,0,0,0,.2-.35,4.22,4.22,0,0,1-.95-.2,5.56,5.56,0,0,1-2.1-1.35,5.25,5.25,0,0,1,0-7.55,5,5,0,0,1,2.1-1.3,5.06,5.06,0,0,1,1-.2,2.92,2.92,0,0,0-.25-.4.16.16,0,0,1-.05-.1C7.57,8.53,7.48,7.77,8,7.3l-.45.1A7.29,7.29,0,0,0,4.2,9.35,5.07,5.07,0,0,1,3.75,9.85Z"/><path class="cls-6" d="M15.05,8.4a8,8,0,0,0-5-1.65A3,3,0,0,0,8,7.3c-.47.47-.38,1.23.25,2.3a.16.16,0,0,0,.05.1,2.92,2.92,0,0,1,.25.4,5.06,5.06,0,0,0-1,.2,5,5,0,0,0-2.1,1.3,5.25,5.25,0,0,0,0,7.55A5.56,5.56,0,0,0,7.5,20.5a4.22,4.22,0,0,0,.95.2,1.17,1.17,0,0,1-.2.35.16.16,0,0,0-.05.1q-.9,1.5-.3,2.25a2.91,2.91,0,0,0,2.15.6A7.91,7.91,0,0,0,15,22.4a1.48,1.48,0,0,0,.35-.25c.23-.2.45-.4.65-.6a8.38,8.38,0,0,0,2.1-3.35,8.54,8.54,0,0,0,.4-2.65V15.2a7.92,7.92,0,0,0-.4-2.55A8.65,8.65,0,0,0,16,9.2c-.2-.2-.42-.4-.65-.6Z"/><path class="cls-7" d="M18.1,12.65a7.92,7.92,0,0,1,.4,2.55v.35a8.54,8.54,0,0,1-.4,2.65A8.38,8.38,0,0,1,16,21.55c-.2.2-.42.4-.65.6l2,.9,0-.05A10.1,10.1,0,0,0,20,18.8a10.3,10.3,0,0,0,.5-3.25V15.2a9.72,9.72,0,0,0-.5-3.15A9.61,9.61,0,0,0,17.4,7.8v0l-2,.85c.23.2.45.4.65.6A8.65,8.65,0,0,1,18.1,12.65Z"/></g></g></g></svg>