<?xml version="1.0" encoding="utf-8"?>
<!-- Generator: Adobe Illustrator 25.0.0, SVG Export Plug-In . SVG Version: 6.00 Build 0)  -->
<svg version="1.1" id="Capa_1" xmlns="http://www.w3.org/2000/svg" xmlns:xlink="http://www.w3.org/1999/xlink" x="0px" y="0px"
	 viewBox="0 0 20.5 30.7" style="enable-background:new 0 0 20.5 30.7;" xml:space="preserve">
<style type="text/css">
	.st0{fill:#664336;}
	.st1{fill:#875E4F;}
	.st2{fill:#CCFF33;}
	.st3{fill:#545454;}
	.st4{fill:#666666;}
	.st5{fill:#3A3838;}
	.st6{fill:#2A2929;}
</style>
<g id="Capa_2_1_">
	<g id="Capa_1-2">
		<g id="Layer0_74_FILL">
			<path class="st0" d="M1.2,11.4C0.4,12.6,0,14,0,15.4v0.1c0,1.4,0.4,2.8,1.1,4c0.3,0.4,0.5,0.9,0.5,1.4l0,0h2l0,0
				c-0.1-0.9-0.4-1.8-1-2.5c-0.6-0.9-0.8-1.9-0.8-3c0-1,0.3-2.1,0.8-2.9c0.5-0.8,0.9-1.6,1-2.6H1.7c-0.1,0.5-0.3,1-0.5,1.4L1.2,11.4
				z"/>
			<path class="st1" d="M4.2,9.4C4.1,9.5,3.9,9.7,3.8,9.9c-0.1,0.9-0.4,1.8-1,2.6C2.3,13.3,2,14.3,2,15.4c0,1.1,0.2,2.1,0.8,3
				c0.5,0.8,0.9,1.6,1,2.5l0,0c0.2,0.1,0.3,0.3,0.5,0.5c0.9,0.9,2,1.6,3.3,2l0.4,0.1c-0.4-0.5-0.3-1.3,0.3-2.3c0,0,0-0.1,0.1-0.1
				c0.1-0.1,0.2-0.2,0.2-0.4c-0.3,0-0.6-0.1-0.9-0.2c-0.8-0.3-1.5-0.7-2.1-1.3c0,0-0.1-0.1-0.1-0.1c-2-2.1-2-5.4,0.1-7.4
				c0.6-0.6,1.3-1,2.1-1.3c0.3-0.1,0.7-0.2,1-0.2C8.4,10,8.3,9.8,8.3,9.7c0,0,0-0.1-0.1-0.1C7.6,8.5,7.5,7.8,8,7.3L7.5,7.4
				C6.2,7.7,5.1,8.4,4.2,9.4z"/>
			<path class="st2" d="M13.7,24.5c0.6-0.6,1.1-1.3,1.4-2.1c-1.4,1.1-3.2,1.6-5,1.6c-0.8,0.1-1.5-0.1-2.1-0.6l-0.4-0.1
				c-1.3-0.3-2.4-1-3.3-1.9c-0.1-0.2-0.3-0.3-0.5-0.5c0.1,1.4,0.7,2.7,1.7,3.6c0.6,0.6,1.3,1,2.1,1.3c0.6,0.2,1.3,0.3,2,0.4
				C11.1,26.2,12.6,25.6,13.7,24.5 M9.5,4.5c-0.7,0-1.4,0.1-2,0.3C6.7,5.1,6,5.6,5.5,6.1c-1,1-1.6,2.3-1.7,3.7
				c0.2-0.2,0.3-0.3,0.5-0.5c0.9-0.9,2-1.6,3.3-1.9L8,7.3c0.6-0.4,1.4-0.6,2.1-0.6c1.8,0,3.6,0.6,5,1.7c-0.3-0.9-0.8-1.6-1.4-2.3
				C12.6,5.1,11.1,4.5,9.5,4.5z"/>
			<path class="st3" d="M15.4,23c0,1.5-0.6,3-1.8,4.1c-1.1,1.1-2.6,1.7-4.1,1.6c-0.7,0-1.4-0.1-2-0.4c-0.8-0.3-1.5-0.7-2.1-1.3
				C4.3,26,3.7,24.5,3.8,23v-2.1h-2c0,0.1,0,0.1,0,0.2V23c0,2.1,0.8,4,2.2,5.5h0c1.5,1.4,3.4,2.2,5.5,2.2c0,0,0.1,0,0.1,0
				c4.2,0,7.7-3.4,7.8-7.6l-2-0.9V23 M15,2.3C13.6,0.8,11.6,0,9.5,0c-0.7,0-1.3,0.1-2,0.3c-1.3,0.4-2.5,1-3.5,2h0
				C2.5,3.7,1.7,5.7,1.8,7.8v1.9c0,0.1,0,0.1,0,0.2h2V7.8c0-1.5,0.6-3,1.7-4.1c0.6-0.6,1.3-1,2.1-1.3C8.1,2.1,8.8,2,9.5,2
				c1.5,0,3,0.6,4.1,1.7c1.1,1.1,1.7,2.6,1.7,4.1v0.8l2.1-0.9l0,0C17.4,5.6,16.5,3.7,15,2.3z"/>
			<path class="st4" d="M15.4,22.1c-0.1,0.1-0.2,0.2-0.3,0.3c-0.3,0.8-0.8,1.6-1.4,2.2c-1.1,1.1-2.6,1.7-4.1,1.6
				c-0.7,0-1.4-0.1-2-0.4c-0.8-0.3-1.5-0.7-2.1-1.3c-1-1-1.6-2.3-1.7-3.6V23c0,1.5,0.6,3,1.7,4.1c0.6,0.6,1.3,1,2.1,1.3
				c0.6,0.2,1.3,0.3,2,0.4c1.5,0.1,3-0.5,4.1-1.6c1.1-1.1,1.7-2.6,1.7-4.1V22.1 M15.3,7.8c0-1.5-0.6-3-1.7-4.1C12.5,2.6,11,2,9.5,2
				c-0.7,0-1.4,0.1-2,0.3C6.7,2.6,6,3.1,5.5,3.7C4.3,4.7,3.7,6.2,3.8,7.8v2.1c0.1-1.4,0.7-2.7,1.7-3.7c0.6-0.6,1.3-1,2.1-1.3
				c0.6-0.2,1.3-0.3,2-0.3c1.6,0,3.1,0.6,4.1,1.6c0.6,0.6,1.1,1.4,1.4,2.3l0.3,0.2L15.3,7.8z"/>
			<path class="st5" d="M15.1,8.4c-1.4-1.1-3.2-1.7-5-1.6C9.3,6.7,8.6,6.9,8,7.3C7.5,7.8,7.6,8.5,8.2,9.6c0,0,0,0.1,0.1,0.1
				c0.1,0.1,0.2,0.3,0.3,0.4c-0.3,0-0.7,0.1-1,0.2C6.7,10.6,6,11,5.4,11.6c0,0-0.1,0.1-0.1,0.1c-2,2.1-2,5.4,0.1,7.4
				c0.6,0.6,1.3,1.1,2.1,1.4c0.3,0.1,0.6,0.2,0.9,0.2c0,0.1-0.1,0.2-0.2,0.4c0,0,0,0.1-0.1,0.1c-0.6,1-0.7,1.8-0.3,2.3
				c0.6,0.5,1.4,0.7,2.2,0.6c1.8,0,3.5-0.5,4.9-1.6c0.1-0.1,0.2-0.2,0.3-0.3c0.2-0.2,0.5-0.4,0.7-0.6c1-0.9,1.7-2.1,2.1-3.4
				c0.3-0.9,0.4-1.8,0.4-2.7v-0.4c0-0.9-0.1-1.7-0.4-2.5c-0.4-1.3-1.1-2.5-2.1-3.4c-0.2-0.2-0.4-0.4-0.7-0.6L15.1,8.4z"/>
			<path class="st6" d="M18.1,12.6c0.3,0.8,0.4,1.7,0.4,2.6v0.4c0,0.9-0.1,1.8-0.4,2.7c-0.4,1.3-1.1,2.4-2.1,3.3
				c-0.2,0.2-0.4,0.4-0.6,0.6l2,0.9v0c1.2-1.2,2.1-2.6,2.6-4.2c0.3-1,0.5-2.1,0.5-3.2v-0.4c0-1.1-0.2-2.1-0.5-3.1
				c-0.5-1.6-1.4-3.1-2.6-4.3l0,0l-2.1,0.8C15.6,8.8,15.8,9,16,9.2C17,10.2,17.7,11.4,18.1,12.6z"/>
		</g>
	</g>
</g>
</svg>
