<svg xmlns="http://www.w3.org/2000/svg" viewBox="0 0 20.5 30.7"><defs><style>.cls-1{fill:#664336;}.cls-2{fill:#875e4f;}.cls-3{fill:#cf3;}.cls-4{fill:#545454;}.cls-5{fill:#666;}.cls-6{fill:#3a3838;}.cls-7{fill:#2a2929;}</style></defs><title>Goalie</title><g id="Capa_2" data-name="Capa 2"><g id="Capa_1-2" data-name="Capa 1"><g id="Layer0_74_FILL" data-name="Layer0 74 FILL"><path class="cls-1" d="M19.35,11.25a3.19,3.19,0,0,1-.55-1.4H16.75a5.47,5.47,0,0,0,.95,2.55,5.4,5.4,0,0,1,.8,2.95,5.4,5.4,0,0,1-.8,3,5.47,5.47,0,0,0-.95,2.55v0H18.8v0a3.19,3.19,0,0,1,.55-1.4,7,7,0,0,0,1.15-4v-.1a6.71,6.71,0,0,0-1.15-4Z"/><path class="cls-2" d="M13,7.4l-.45-.1c.47.47.38,1.23-.25,2.3a.16.16,0,0,1-.05.1,2.92,2.92,0,0,0-.25.4,5.06,5.06,0,0,1,1,.2,5,5,0,0,1,2.1,1.3,5.25,5.25,0,0,1,0,7.55A5.56,5.56,0,0,1,13,20.5a4.22,4.22,0,0,1-.95.2,1.17,1.17,0,0,0,.2.35.16.16,0,0,1,.05.1q.9,1.5.3,2.25l.4-.1a7.29,7.29,0,0,0,3.3-1.95,2.4,2.4,0,0,1,.45-.45v0a5.47,5.47,0,0,1,.95-2.55,5.4,5.4,0,0,0,.8-3,5.4,5.4,0,0,0-.8-2.95,5.47,5.47,0,0,1-.95-2.55,5.07,5.07,0,0,1-.45-.5A7.29,7.29,0,0,0,13,7.4Z"/><path class="cls-3" d="M6.85,24.55A5.67,5.67,0,0,0,11,26.2,6,6,0,0,0,13,25.85a5.38,5.38,0,0,0,2.05-1.3,5.59,5.59,0,0,0,1.7-3.65,2.4,2.4,0,0,0-.45.45A7.29,7.29,0,0,1,13,23.3l-.4.1a2.91,2.91,0,0,1-2.15.6A7.91,7.91,0,0,1,5.5,22.4a5.51,5.51,0,0,0,1.35,2.15m0-18.4A5.6,5.6,0,0,0,5.45,8.4a8,8,0,0,1,5-1.65,3,3,0,0,1,2.1.55l.45.1a7.29,7.29,0,0,1,3.3,1.95,5.07,5.07,0,0,0,.45.5,5.65,5.65,0,0,0-1.7-3.7A5.38,5.38,0,0,0,13,4.85,6,6,0,0,0,11,4.5,5.67,5.67,0,0,0,6.85,6.15Z"/><path class="cls-4" d="M5.15,23v-.8l-2,.9A7.68,7.68,0,0,0,11,30.7a7.73,7.73,0,0,0,5.5-2.2h.05A7.64,7.64,0,0,0,18.75,23V21.1a.49.49,0,0,1,.05-.2H16.75V23a5.6,5.6,0,0,1-1.7,4.1A5.38,5.38,0,0,1,13,28.35,6,6,0,0,1,11,28.7a5.67,5.67,0,0,1-4.1-1.65A5.6,5.6,0,0,1,5.15,23M3.15,7.7l0,0,2.05.85V7.75a5.6,5.6,0,0,1,1.7-4.1A5.67,5.67,0,0,1,11,2,6,6,0,0,1,13,2.35a5.38,5.38,0,0,1,2.05,1.3,5.6,5.6,0,0,1,1.7,4.1v2.1H18.8a.49.49,0,0,1-.05-.2V7.75a7.48,7.48,0,0,0-2.25-5.5h-.05A7.7,7.7,0,0,0,13,.25,7.89,7.89,0,0,0,11,0a7.59,7.59,0,0,0-5.5,2.25A7.36,7.36,0,0,0,3.15,7.7Z"/><path class="cls-5" d="M5.15,22.15V23a5.6,5.6,0,0,0,1.7,4.1A5.67,5.67,0,0,0,11,28.7,6,6,0,0,0,13,28.35a5.38,5.38,0,0,0,2.05-1.3,5.6,5.6,0,0,0,1.7-4.1V20.9a5.59,5.59,0,0,1-1.7,3.65A5.38,5.38,0,0,1,13,25.85,6,6,0,0,1,11,26.2a5.67,5.67,0,0,1-4.1-1.65A5.51,5.51,0,0,1,5.5,22.4a1.48,1.48,0,0,1-.35-.25m0-13.55.3-.2a5.6,5.6,0,0,1,1.4-2.25A5.67,5.67,0,0,1,11,4.5,6,6,0,0,1,13,4.85a5.38,5.38,0,0,1,2.05,1.3,5.65,5.65,0,0,1,1.7,3.7V7.75a5.6,5.6,0,0,0-1.7-4.1A5.38,5.38,0,0,0,13,2.35,6,6,0,0,0,11,2a5.67,5.67,0,0,0-4.1,1.65,5.6,5.6,0,0,0-1.7,4.1Z"/><path class="cls-6" d="M5.15,8.6c-.23.2-.45.4-.65.6a8.65,8.65,0,0,0-2.1,3.45A7.92,7.92,0,0,0,2,15.2v.35a8.54,8.54,0,0,0,.4,2.65,8.38,8.38,0,0,0,2.1,3.35c.2.2.42.4.65.6a1.48,1.48,0,0,0,.35.25A7.91,7.91,0,0,0,10.45,24a2.91,2.91,0,0,0,2.15-.6q.6-.75-.3-2.25a.16.16,0,0,0-.05-.1,1.17,1.17,0,0,1-.2-.35,4.22,4.22,0,0,0,.95-.2,5.56,5.56,0,0,0,2.1-1.35,5.25,5.25,0,0,0,0-7.55A5,5,0,0,0,13,10.3a5.06,5.06,0,0,0-1-.2,2.92,2.92,0,0,1,.25-.4.16.16,0,0,0,.05-.1c.63-1.07.72-1.83.25-2.3a3,3,0,0,0-2.1-.55,8,8,0,0,0-5,1.65Z"/><path class="cls-7" d="M4.5,9.2c.2-.2.42-.4.65-.6L3.1,7.75v0A9.61,9.61,0,0,0,.5,12.05,9.72,9.72,0,0,0,0,15.2v.35A10.3,10.3,0,0,0,.5,18.8,10.1,10.1,0,0,0,3.1,23l0,.05,2-.9c-.23-.2-.45-.4-.65-.6A8.38,8.38,0,0,1,2.4,18.2,8.54,8.54,0,0,1,2,15.55V15.2a7.92,7.92,0,0,1,.4-2.55A8.65,8.65,0,0,1,4.5,9.2Z"/></g></g></g></svg>