<?xml version="1.0" encoding="utf-8"?>
<!-- Generator: Adobe Illustrator 25.0.0, SVG Export Plug-In . SVG Version: 6.00 Build 0)  -->
<svg version="1.1" id="Capa_1" xmlns="http://www.w3.org/2000/svg" xmlns:xlink="http://www.w3.org/1999/xlink" x="0px" y="0px"
	 viewBox="0 0 1366 768" style="enable-background:new 0 0 1366 768;" xml:space="preserve">
<style type="text/css">
	.st0{fill:#FFFFFF;}
</style>
<g>
	<path d="M956.67,155.11C784.17,120.28,683,42.5,683,42.5s-101.17,77.78-273.67,112.62C386.11,299.41,392.75,544.13,683,726.5
		C973.25,544.13,979.89,299.41,956.67,155.11z"/>
	<path class="st0" d="M942.22,166.8C778.83,133.81,683,61.98,683,61.98s-95.83,71.83-259.22,104.82
		C401.78,303.48,408.07,534.28,683,707.02C957.93,534.28,964.22,303.48,942.22,166.8z"/>
	<g>
		<g>
			<g>
				<g>
					<path d="M828.85,279.06c0,14.06-8.74,30.48-19.53,30.48s-19.53-16.42-19.53-30.48c0-14.06,8.74-20.42,19.53-20.42
						S828.85,265.01,828.85,279.06z"/>
				</g>
				<g>
					<path d="M843.65,377.01c3.26-18.64,6.81-50.6,1.96-60.96c-4.46-9.52-31.35-14.71-35.69-15.49l0-0.1c0,0-0.11,0.02-0.3,0.05
						c-0.19-0.03-0.3-0.05-0.3-0.05l0,0.1c-4.34,0.78-31.23,5.97-35.69,15.49c-4.85,10.36-1.3,42.32,1.96,60.96
						c3.26,18.64,10.06,30.25,14.8,33.91c0,0-6.21,5.15-1.78,11.95c4.44,6.81,6.51,8.29,6.51,8.29l0.89,5.03
						c0,0-8.29,0.89-10.36,9.17v27.82c0,0,0.89,11.24,10.36,11.84h9.3h8.62h9.3c9.47-0.59,10.36-11.84,10.36-11.84v-27.82
						c-2.07-8.29-10.36-9.17-10.36-9.17l0.89-5.03c0,0,2.07-1.48,6.51-8.29c4.44-6.81-1.78-11.95-1.78-11.95
						C833.59,407.26,840.39,395.65,843.65,377.01z"/>
				</g>
			</g>
			<g>
				<g>
					<path d="M702.23,279.06c0,14.06-8.74,30.48-19.53,30.48s-19.53-16.42-19.53-30.48c0-14.06,8.74-20.42,19.53-20.42
						S702.23,265.01,702.23,279.06z"/>
				</g>
				<g>
					<path d="M717.03,377.01c3.26-18.64,6.81-50.6,1.96-60.96c-4.46-9.52-31.35-14.71-35.69-15.49l0-0.1c0,0-0.11,0.02-0.3,0.05
						c-0.19-0.03-0.3-0.05-0.3-0.05l0,0.1c-4.34,0.78-31.23,5.97-35.69,15.49c-4.85,10.36-1.3,42.32,1.96,60.96
						c3.26,18.64,10.06,30.25,14.8,33.91c0,0-6.21,5.15-1.78,11.95c4.44,6.81,6.51,8.29,6.51,8.29l0.89,5.03
						c0,0-8.29,0.89-10.36,9.17v27.82c0,0,0.89,11.24,10.36,11.84h9.3h8.62h9.3c9.47-0.59,10.36-11.84,10.36-11.84v-27.82
						c-2.07-8.29-10.36-9.17-10.36-9.17l0.89-5.03c0,0,2.07-1.48,6.51-8.29c4.44-6.81-1.78-11.95-1.78-11.95
						C706.97,407.26,713.78,395.65,717.03,377.01z"/>
				</g>
			</g>
			<g>
				<g>
					<path d="M575.62,279.06c0,14.06-8.74,30.48-19.53,30.48s-19.53-16.42-19.53-30.48c0-14.06,8.74-20.42,19.53-20.42
						S575.62,265.01,575.62,279.06z"/>
				</g>
				<g>
					<path d="M590.41,377.01c3.26-18.64,6.81-50.6,1.96-60.96c-4.46-9.52-31.35-14.71-35.69-15.49l0-0.1c0,0-0.11,0.02-0.3,0.05
						c-0.19-0.03-0.3-0.05-0.3-0.05l0,0.1c-4.34,0.78-31.23,5.97-35.69,15.49c-4.85,10.36-1.3,42.32,1.96,60.96
						c3.26,18.64,10.06,30.25,14.8,33.91c0,0-6.21,5.15-1.78,11.95c4.44,6.81,6.51,8.29,6.51,8.29l0.89,5.03
						c0,0-8.29,0.89-10.36,9.17v27.82c0,0,0.89,11.24,10.36,11.84h9.3h8.62h9.3c9.47-0.59,10.36-11.84,10.36-11.84v-27.82
						c-2.07-8.29-10.36-9.17-10.36-9.17l0.89-5.03c0,0,2.07-1.48,6.51-8.29c4.44-6.81-1.78-11.95-1.78-11.95
						C580.35,407.26,587.16,395.65,590.41,377.01z"/>
				</g>
			</g>
		</g>
		<g>
			<path d="M953.53,350.73H412.47c-1.36,0-2.47-1.1-2.47-2.47v-6.58c0-1.36,1.1-2.47,2.47-2.47h541.07c1.36,0,2.47,1.1,2.47,2.47
				v6.58C956,349.62,954.9,350.73,953.53,350.73z"/>
		</g>
	</g>
	<g>
		<path d="M629.98,155.22c0.19,0,0.4,0.25,0.63,0.73v11.89c0,0.18-0.21,0.41-0.63,0.69h-7.42v57.54c0,0.82-0.37,1.24-1.12,1.24
			h-9.97c-0.75,0-1.12-0.41-1.12-1.24v-57.54h-7.59c-0.42-0.13-0.63-0.66-0.63-1.58v-9.96c0-0.9,0.27-1.49,0.8-1.78H629.98z
			 M606.47,162.51v0.19h0.49v-0.19H606.47z M608.25,162.16v0.16h0.31v-0.16H608.25z M608.39,163.94v0.15
			c0.02,0.26,0.14,0.39,0.35,0.39l0.14-0.39v-0.15H608.39z M608.74,159.5c0,0.18,0.15,0.36,0.45,0.54c0.44-0.26,0.83-0.39,1.15-0.39
			v-0.15H608.74z M608.74,161.62v0.35h0.14v-0.35H608.74z M609.86,162.16v0.35H610v-0.35H609.86z M610.98,160.2
			c0,0.21-0.1,0.5-0.31,0.89h0.31c0-0.26,0.06-0.49,0.18-0.69v-0.19H610.98z M611.61,163.94l0.17-0.35v-0.39h-0.17
			c-0.21,0.03-0.31,0.16-0.31,0.39C611.34,163.82,611.45,163.94,611.61,163.94z M612.42,161.28c0.05,0.23,0.16,0.35,0.35,0.35v-0.35
			H612.42z M612.59,162.32v0.39h0.18l0.45-0.39c0.28,0.23,0.67,0.41,1.15,0.54l0.14-0.35c-0.19,0-0.77-0.18-1.75-0.54L612.59,162.32
			z M612.77,163.4c0,0.1-0.06,0.28-0.18,0.54c0.19,0,0.4,0.12,0.63,0.35c0-0.23,0.27-0.35,0.8-0.35v-0.35l-0.31,0.15h-0.49
			L612.77,163.4z M613.08,164.48v0.35h0.14v-0.35H613.08z M613.4,159.66v0.89h0.31c0-0.46,0.1-0.7,0.31-0.7h0.35l0.31,0.19
			c0-0.13,0.05-0.19,0.14-0.19c-0.14-0.46-0.29-0.69-0.45-0.69C614.28,159.49,613.96,159.66,613.4,159.66z M613.71,166.26v0.35h0.18
			v-0.35H613.71z M613.71,169.96c0.05,0.23,0.15,0.35,0.31,0.35c0.23,0,0.35-0.12,0.35-0.35v-0.15c-0.19,0-0.41-0.13-0.67-0.39
			V169.96z M613.89,160.93v0.15c0,0.15,0.16,0.33,0.49,0.54h0.8v-0.19c-0.33,0-0.49-0.17-0.49-0.5H613.89z M614.03,201.37v0.39h0.18
			v-0.39H614.03z M614.2,164.64v0.19h0.31v-0.19H614.2z M614.2,197.67v0.35c0.21,0,0.31-0.12,0.31-0.35H614.2z M614.38,168.18h0.45
			v-0.35c-0.23,0.13-0.38,0.19-0.45,0.19V168.18z M614.52,166.26v0.16h0.31v-0.16H614.52z M614.69,169.07h0.31
			c0-0.23-0.1-0.35-0.31-0.35V169.07z M615.01,159.31v0.19h0.31v-0.19H615.01z M615.81,163.4c0,0.51-0.27,0.88-0.8,1.08v0.15
			c0.33,0,0.49,0.12,0.49,0.35l-0.18,0.39h0.49l-0.18-0.89c0.33-0.51,0.49-0.88,0.49-1.08H615.81z M615.32,162.86l1.61,0.19
			l-0.49-0.89v-0.35c0.02-0.26,0.14-0.39,0.35-0.39c0.02,0.26,0.13,0.39,0.31,0.39c0.19-0.13,0.4-0.19,0.63-0.19v-0.35l-0.31,0.15
			c-0.19,0-0.51-0.12-0.98-0.35c-0.28,0-0.65,0.54-1.12,1.62V162.86z M615.32,200.68c0.05,0.23,0.15,0.35,0.31,0.35h0.18v-0.35
			H615.32z M615.81,160.74c0-0.23,0.21-0.35,0.63-0.35l-0.14-0.35c-0.33,0.1-0.55,0.33-0.67,0.69H615.81z M615.81,166.6
			c0,0.05-0.06,0.23-0.18,0.54v0.35h0.18c0-0.28,0.06-0.53,0.17-0.73v-0.15H615.81z M615.81,168.73c0.12,0.46,0.38,0.69,0.8,0.69
			v-0.35c-0.16,0-0.37-0.12-0.63-0.35H615.81z M615.98,197.32c0.05,0.23,0.15,0.35,0.31,0.35v-0.35H615.98z M616.3,178.68v0.16h0.31
			v-0.16H616.3z M616.44,167.14v0.35h0.18v-0.35H616.44z M616.44,203.69v0.19h0.35v-0.19H616.44z M616.61,159.15v0.35h0.8v-0.35
			H616.61z M616.61,163.94c0.33,0.41,0.49,0.71,0.49,0.89h0.49v-0.73c-0.4,0-0.72-0.12-0.98-0.35V163.94z M616.61,170.85v0.35h0.17
			v-0.35H616.61z M616.79,170.15v0.15h0.31v-0.15H616.79z M616.93,160.39v0.15c0.19,0,0.41,0.13,0.67,0.39v-0.54H616.93z
			 M617.59,167.84h0.31v-0.35c0-0.23-0.1-0.35-0.31-0.35V167.84z M617.73,163.59c0.23-0.13,0.4-0.19,0.49-0.19v-0.19
			c0-0.18-0.16-0.35-0.49-0.5V163.59z M617.73,196.43v0.35h0.31v-0.35H617.73z M618.05,159.15v0.5h0.35c0-0.13,0.05-0.3,0.14-0.5
			H618.05z M618.05,162.32v0.19h0.35v-0.19H618.05z M618.54,162.51c0,0.21,0.49,0.68,1.47,1.43v-0.35c-0.33,0-0.55-0.3-0.66-0.89
			L618.54,162.51z M619.03,160.39v0.35h0.8v-0.19L619.03,160.39z M619.83,159.5v0.35h0.17v-0.35H619.83z M620.95,160.54l-0.63,1.27
			h0.8l0.14-1.08L620.95,160.54z M621.13,159.15l0.14,0.89h0.17v-0.89H621.13z M621.13,163.05v0.35h0.14v-0.35H621.13z
			 M621.13,164.09v0.19c0.26,0,0.52,0.12,0.8,0.35v-0.7L621.13,164.09z M621.93,160.54v0.39h0.31v-0.39H621.93z M622.88,160.54
			c0.21-0.1,0.37-0.15,0.49-0.15c-0.09-0.21-0.14-0.39-0.14-0.54h-0.17c-0.14,0-0.3,0.18-0.49,0.54L622.88,160.54z M623.23,159.31
			v0.35c0.35,0,0.62,0.06,0.8,0.19v-0.35L623.23,159.31z M623.54,160.93h0.31c0-0.26-0.1-0.39-0.31-0.39V160.93z M624.35,163.05
			v0.35h0.14v-0.35H624.35z M624.49,161.08c0.12,0.21,0.17,0.45,0.17,0.73h0.17v-0.89L624.49,161.08z M624.84,163.94v0.54h0.14
			v-0.54H624.84z M624.98,159.15c0.21,0.26,0.31,0.55,0.31,0.89h0.17v-0.73l-0.31-0.15H624.98z"/>
		<path d="M641.42,155.22h13.82c0.54,0,0.97,2.07,1.29,6.21c3.83,25.7,6.67,47.25,8.54,64.64c-0.21,0.75-0.48,1.16-0.8,1.24h-10.78
			c-0.63,0-1.12-2.6-1.47-7.8c-0.56-4.5-0.93-6.75-1.12-6.75h-5.46c-0.93,9.57-1.63,14.36-2.1,14.36c-0.19,0.13-0.41,0.19-0.66,0.19
			h-10.46c-0.14,0-0.35-0.23-0.63-0.69c1.63-15.59,4.37-37.14,8.22-64.64c0.56-3.81,0.98-5.99,1.26-6.56L641.42,155.22z
			 M637.05,212.22v0.35h0.18v-0.35H637.05z M637.71,216.46v0.19c0,0.36,0.43,0.59,1.29,0.69v-0.35c-0.16,0-0.43-0.18-0.8-0.54
			H637.71z M638.66,203.15v0.19h0.35v-0.19H638.66z M638.66,208.13h0.35v-0.15c0-0.26-0.12-0.39-0.35-0.39V208.13z M639.46,212.57
			l0.18-0.35v-0.19c-0.23,0.13-0.4,0.19-0.49,0.19C639.19,212.45,639.3,212.57,639.46,212.57z M640.13,209.56v0.19h0.31v-0.19
			H640.13z M640.27,212.41l-0.14,0.89c0.21,0,0.37-0.3,0.49-0.89H640.27z M640.44,219.67c0.05,0.23,0.15,0.35,0.31,0.35h0.17v-0.35
			H640.44z M640.44,221.29v0.15h0.31v-0.15H640.44z M640.62,222.68c0,0.1-0.06,0.28-0.17,0.54h0.49v-0.54H640.62z M641.42,181.69
			v-0.54c-0.54,0.28-0.8,0.51-0.8,0.69C640.78,181.74,641.05,181.69,641.42,181.69z M640.93,180.26v0.35h0.14v-0.35H640.93z
			 M641.07,182.39v1.08h0.17c0-0.23,0.06-0.35,0.17-0.35c-0.12-0.21-0.17-0.45-0.17-0.73H641.07z M641.56,212.41v0.35h0.17v-0.35
			H641.56z M642.05,172.62v0.35c0.21,0,0.31-0.12,0.31-0.35H642.05z M642.05,176.02c0.05,0.23,0.15,0.35,0.31,0.35v-0.35H642.05z
			 M642.05,178.84v0.73h0.17c0.23-0.26,0.44-0.39,0.63-0.39v-0.35H642.05z M642.23,181.34v0.5h0.14c0-0.08,0.06-0.24,0.17-0.5
			H642.23z M642.68,208.32h0.35c0-0.23-0.12-0.35-0.35-0.35V208.32z M643.83,165.18l0.31,0.54v0.15c0,0.26-0.1,0.39-0.31,0.39h-0.17
			l-0.49-0.39v0.89l0.49-0.35l1.12,0.19v-0.19c-0.33,0-0.49-0.12-0.49-0.35v-0.89H643.83z M643.34,164.83h0.31l-0.17-0.35l0.17-1.08
			c-0.21,0.03-0.31,0.14-0.31,0.35V164.83z M643.34,208.32v0.35h0.14v-0.35H643.34z M644.78,160.2c-0.44,1.18-0.76,1.78-0.94,1.78
			h-0.17v0.73h0.17c0.02-0.49,0.17-0.73,0.46-0.73h0.17l0.49,0.35h0.14l0.17-0.7l-0.31,0.19h-0.17v-0.39c0-0.1,0.06-0.15,0.17-0.15
			l-0.17-0.35l0.31-0.54L644.78,160.2z M643.66,160.54v0.54c0.28-0.23,0.49-0.35,0.63-0.35v-0.19H643.66z M644.64,159.15v0.15
			l0.8,0.19v-0.35H644.64z M644.64,180.46v0.15h0.31v-0.15H644.64z M644.78,168.18c0.05,0.23,0.15,0.35,0.31,0.35l0.17-0.35H644.78z
			 M644.95,177.95v0.35h0.14v-0.35H644.95z M646.7,159.15c0,1.06-0.37,1.58-1.12,1.58l-0.49,0.7h0.17c0.19-0.1,0.35-0.15,0.49-0.15
			l0.31,0.15c0.42-0.23,0.79-0.35,1.12-0.35c0.12,0.21,0.17,0.57,0.17,1.08h0.49v-0.54c0-0.36-0.12-0.72-0.35-1.08
			c0.12-0.26,0.17-0.42,0.17-0.5h-0.17l-0.46,0.35l-0.17-0.35v-0.19l0.31-0.54l-0.31-0.15H646.7z M645.58,163.59
			c0.21,0,0.31,0.23,0.31,0.69h0.17c0-0.36,0.16-0.54,0.49-0.54v-0.15c-0.3,0-0.57-0.13-0.8-0.39L645.58,163.59z M645.58,206.7v0.19
			h0.31v-0.19H645.58z M645.76,206.2h0.31v-0.54c-0.21,0.03-0.31,0.14-0.31,0.35V206.2z M648.17,180.61
			c-0.09,2.8-0.85,9.38-2.27,19.72h4.69c-1.03-8.08-1.78-14.65-2.27-19.72H648.17z M646.07,165.18c0.21,0.26,0.31,0.55,0.31,0.89
			h0.17v-0.89H646.07z M646.07,173.7v0.54h0.17v-0.54H646.07z M647.05,171.93l0.14-0.35v-0.19h-0.14c-0.23,0.03-0.35,0.14-0.35,0.35
			L647.05,171.93z M647.37,162.71v0.15h0.31v-0.15H647.37z M647.37,170.5c0.09,0.21,0.14,0.39,0.14,0.54h0.17v-0.73L647.37,170.5z
			 M647.86,166.95v0.35h0.63v-0.15L647.86,166.95z M648.17,162.16l-0.17,2.12h0.31l0.35-2.12H648.17z M648.66,159.15v1.04
			c0.42,0,0.63,0.3,0.63,0.89c-0.12,0-0.17,0.06-0.17,0.19c0.37,0.36,0.64,0.54,0.8,0.54h0.17v-0.19c-0.3,0-0.51-0.29-0.63-0.89
			l0.31-0.69c-0.33,0-0.49-0.13-0.49-0.39v-0.15l0.17-0.35H648.66z M648.66,160.74v0.35h0.14v-0.35H648.66z M649.12,167.49
			l-0.14,0.69c0.14,0,0.3-0.18,0.49-0.54v-0.15H649.12z M649.12,208.48v0.39h0.17v-0.39H649.12z M649.78,159.15
			c0.09,0.18,0.14,0.41,0.14,0.69h0.17v-0.69H649.78z M650.27,162.16v0.35h0.63c0-0.23-0.1-0.35-0.31-0.35H650.27z M650.27,168.73
			h0.46v-0.19c-0.12,0-0.27-0.05-0.46-0.15V168.73z M650.41,160.04v0.5h0.31v-0.5H650.41z M650.41,161.28v0.15h0.31v-0.15H650.41z
			 M650.73,159.85c0.23,0,0.35-0.12,0.35-0.35s-0.12-0.35-0.35-0.35V159.85z M650.9,163.21v0.19h0.31v-0.19H650.9z M650.9,169.96
			l0.63,0.19v-0.35c-0.07,0-0.22-0.06-0.45-0.19L650.9,169.96z M651.08,165.52h0.45v-0.35c-0.23,0.13-0.38,0.19-0.45,0.19V165.52z
			 M651.39,169.07v0.19h0.31v-0.19H651.39z M651.88,162.71c0,0.23-0.12,0.35-0.35,0.35v0.15h0.35l0.31-0.5H651.88z M651.71,164.48
			h0.31c0-0.26-0.1-0.39-0.31-0.39V164.48z M651.71,177.41v0.39h0.18v-0.39H651.71z M652.51,159.5c0,0.59-0.21,0.89-0.63,0.89
			c0.21,0.26,0.31,0.85,0.31,1.77h0.14c0.12-0.59,0.28-0.89,0.49-0.89c-0.09-0.39-0.14-0.98-0.14-1.78H652.51z M652.02,172.62v0.35
			h0.17v-0.35H652.02z M652.69,191.11v-0.39c-0.23,0.03-0.35,0.15-0.35,0.39H652.69z M652.51,164.29l0.8-0.19v-0.35
			c-0.33,0-0.49-0.23-0.49-0.7c-0.21,0.03-0.31,0.14-0.31,0.35V164.29z M652.83,166.95v0.54H653v-0.54H652.83z M653.32,164.83v0.54
			h0.18v-0.54H653.32z M653.95,204.04v0.19h0.35v-0.19H653.95z M654.12,168.18v0.35h0.18v-0.35H654.12z M654.93,215.58
			c0.12,0.31,0.18,0.49,0.18,0.54c-0.12,0.26-0.18,0.44-0.18,0.54c0.14,0,0.3-0.18,0.49-0.54c-0.12-0.26-0.18-0.44-0.18-0.54H654.93
			z M655.56,206.89v0.19h0.35v-0.19H655.56z M656.22,208.48v0.39h0.14v-0.39H656.22z M656.53,218.24c0.02,0.26,0.13,0.39,0.31,0.39
			v-0.19c0-0.23-0.1-0.35-0.31-0.35V218.24z M656.71,219.32h0.31v-0.19c0-0.23-0.1-0.35-0.31-0.35V219.32z M657.34,219.13
			c0.02,0.26,0.13,0.39,0.31,0.39c0-0.18,0.1-0.42,0.31-0.73c-0.14,0-0.35-0.12-0.63-0.35V219.13z M657.51,212.41
			c0.09,0.21,0.14,0.37,0.14,0.5h0.31v-0.16c0-0.23-0.1-0.35-0.31-0.35H657.51z M657.51,221.09v0.19h0.31v-0.19H657.51z
			 M658.77,219.86c0,0.36-0.21,0.54-0.63,0.54c0,0.13,0.16,0.3,0.49,0.5c0.23,0,0.4-0.35,0.49-1.04H658.77z M658.63,213.65v0.15
			h0.31v-0.15H658.63z M658.77,218.09v0.69h0.67v-0.15c0-0.15-0.16-0.33-0.49-0.54H658.77z M659.26,220.9v0.54h0.18
			c0-0.13,0.05-0.31,0.14-0.54H659.26z M659.75,220.9v0.19h0.31v-0.19H659.75z M659.93,219.51v0.15c0.09,0.21,0.14,0.39,0.14,0.54
			h0.31v-0.35c0-0.23-0.1-0.35-0.31-0.35H659.93z M660.24,221.79v0.19h0.31v-0.19H660.24z M660.24,223.06v0.35h0.14v-0.35H660.24z"
			/>
		<path d="M685.26,155.22c6.62,0,10.81,1.72,12.56,5.17c1.73,2.57,2.59,6.12,2.59,10.65v11.19c0,3.86-1.03,6.87-3.08,9.03
			c2.05,2.16,3.08,5.18,3.08,9.07v11.19c0,7.8-2.58,12.76-7.73,14.9c-1.49,0.59-4.5,0.89-9.03,0.89h-10.46
			c-0.75,0-1.12-0.41-1.12-1.24v-69.58c0-0.85,0.37-1.27,1.12-1.27H685.26z M675.46,201.37l0.8,0.19v-0.35
			c-0.35,0-0.62-0.06-0.8-0.19V201.37z M676.09,206.01c0,0.36-0.21,0.54-0.63,0.54l0.14,0.89l-0.14,0.35v0.19h0.14
			c0-0.36,0.33-0.54,0.98-0.54l-0.18-0.35v-0.19l0.18-0.89H676.09z M675.78,213.65c0,0.18-0.1,0.41-0.31,0.7v0.89h0.14l0.49-0.35
			c-0.12-0.51-0.18-0.93-0.18-1.24H675.78z M675.46,215.77v0.35c0.16,0,0.43,0.18,0.8,0.54h0.31v-0.19
			c-0.21-0.28-0.31-0.51-0.31-0.69H675.46z M675.46,217.2v0.69h0.31c-0.12-0.21-0.18-0.44-0.18-0.69H675.46z M675.46,219.32
			c0.21,0.8,0.31,1.27,0.31,1.43l1.43-1.24h0.18l0.31,0.15v-0.35c-0.33,0-0.49-0.12-0.49-0.35s0.33-0.35,0.98-0.35v-0.19
			c-0.75,0-1.12-0.36-1.12-1.08c-0.86,0.95-1.4,1.43-1.61,1.43V219.32z M675.46,220.9v0.89c1.05,0.13,1.63,0.19,1.75,0.19v-0.89
			h-0.31c0,0.46-0.1,0.7-0.31,0.7l-0.98-0.89H675.46z M675.6,163.59c0.05,0.23,0.15,0.35,0.31,0.35v-0.35H675.6z M675.6,199.1v0.15
			h0.31v-0.15H675.6z M675.6,204.42v0.16h0.31v-0.16H675.6z M676.9,218.78v0.19c0,0.18-0.21,0.41-0.63,0.69h-0.17
			c-0.21,0-0.31-0.12-0.31-0.35v-0.19c0.21-0.46,0.52-0.69,0.94-0.69L676.9,218.78z M676.09,212.91v0.39h0.17v-0.39H676.09z
			 M676.58,205.12v0.54h0.14v-0.54H676.58z M676.72,214.34v0.35h0.18v-0.35H676.72z M676.9,213.65v0.54c0.21,0,0.31-0.13,0.31-0.39
			L676.9,213.65z M677.7,199.1c0,0.46-0.21,0.69-0.63,0.69v0.19h0.8l0.14-0.89H677.7z M677.88,205.81h0.14v-0.15
			c-0.21-0.49-0.52-0.73-0.94-0.73C677.14,205.23,677.41,205.53,677.88,205.81z M677.88,223.41c0-0.23-0.12-0.35-0.35-0.35h-0.14
			c-0.21,0.03-0.31,0.14-0.31,0.35H677.88z M677.39,203.15v0.19h0.31v-0.19H677.39z M677.39,210.1v0.15c0.35,0,0.62,0.06,0.8,0.19
			v-0.35c0-0.23-0.1-0.35-0.31-0.35C677.88,209.98,677.71,210.1,677.39,210.1z M677.53,212.41v0.35h0.49v-0.35
			c0-0.26-0.1-0.39-0.31-0.39L677.53,212.41z M677.7,221.98v0.7h0.17v-0.7H677.7z M677.88,213.3v0.15c0.07,0,0.22,0.06,0.45,0.19
			v-0.35c0-0.26-0.1-0.39-0.31-0.39L677.88,213.3z M678.33,221.29l-0.14,0.35c0.42,0.64,0.63,1.23,0.63,1.78h0.8
			c0-0.36,0.16-0.54,0.49-0.54l0.8,0.54l0.17-0.35v-0.19c-0.33,0-0.65-0.29-0.98-0.89c0,0.36-0.1,0.54-0.31,0.54h-0.67
			c-0.21,0-0.31-0.12-0.31-0.35l0.66-0.89l-0.8,0.15L678.33,221.29z M678.33,220.21v0.19c0.12,0.26,0.18,0.42,0.18,0.5h0.17v-0.15
			c-0.12-0.26-0.17-0.44-0.17-0.54H678.33z M679.31,217.74v0.7c0.47,0,0.79,0.06,0.98,0.19v-0.39c-0.33,0-0.49-0.17-0.49-0.5H679.31
			z M679.8,196.94v0.39c0.21,0,0.31-0.13,0.31-0.39H679.8z M679.94,167.3h0.18c0.14,0,0.3-0.18,0.49-0.54h-0.31
			c-0.23,0.03-0.35,0.15-0.35,0.39V167.3z M680.12,162.71h0.63l-0.14-0.39c-0.23,0.13-0.4,0.19-0.49,0.19V162.71z M680.29,220.75
			l0.31,0.54c-0.19,0.1-0.35,0.15-0.49,0.15v0.19h0.63c0-0.39,0.06-0.68,0.18-0.89H680.29z M680.29,159.66v0.39
			c0.05,0.23,0.15,0.35,0.31,0.35h0.31v-0.54L680.29,159.66z M681.24,161.43v0.39h0.17v-0.39H681.24z M682.04,222.87v0.54h0.66
			c0-0.15-0.16-0.33-0.49-0.54H682.04z M683.16,159.15v0.15h0.35v-0.15H683.16z M683.33,159.5l-0.17,1.04h0.35v-1.04H683.33z
			 M683.33,167.64v17.95h1.43c2.92,0,4.37-1.25,4.37-3.74v-9.22c0-3.32-0.86-4.98-2.59-4.98H683.33z M683.33,196.94v17.95h3.39
			c1.61,0,2.41-1.59,2.41-4.79v-8.53c0-3.09-1.24-4.63-3.71-4.63H683.33z M683.82,220.21v0.35h0.14v-0.35H683.82z M684.14,160.2
			c-0.12,0.26-0.17,0.44-0.17,0.54h0.35c0-0.39,0.21-0.86,0.63-1.43v-0.15h-0.49c-0.14,0-0.3,0.23-0.49,0.69L684.14,160.2z
			 M684.14,219.13v0.19h0.49v-0.19H684.14z M685.26,164.29v0.35h0.17v-0.35H685.26z M685.92,160.04v0.35
			c0.05,0.23,0.15,0.35,0.31,0.35c0.23-0.13,0.4-0.19,0.49-0.19c0-0.18-0.16-0.35-0.49-0.5H685.92z M686.24,163.94l0.32-0.19
			c0.65,0.13,1.08,0.19,1.29,0.19l0.32-0.89h-0.49c-0.47,0.36-0.95,0.54-1.44,0.54V163.94z M686.38,159.15v0.35
			c0.54,0,0.92,0.12,1.15,0.35v-0.54h-0.8L686.38,159.15z M686.38,161.08v0.19h0.35v-0.19H686.38z M687.85,161.43h0.14v-0.15
			l-0.31-0.73c-0.19,0.13-0.4,0.19-0.63,0.19C687.04,160.89,687.31,161.12,687.85,161.43z M688.34,161.82v0.35l0.46-0.35
			c0,0.13,0.16,0.3,0.49,0.5h0.17c-0.21-0.28-0.31-0.51-0.31-0.7L688.34,161.82z M689.6,159.66c0,0.72-0.05,1.14-0.14,1.27h0.49
			l-0.17-1.27H689.6z M691.21,160.93v-0.19c-0.21-0.31-0.31-0.54-0.31-0.69h-0.32c-0.16,0-0.33,0.17-0.49,0.5L691.21,160.93z
			 M690.09,163.59v0.15h0.31v-0.15H690.09z M690.09,166.06h0.49v-0.54c-0.23,0.13-0.4,0.19-0.49,0.19V166.06z M690.26,164.98h0.14
			c0.16,0,0.38-0.23,0.66-0.69h-0.17c-0.42,0.18-0.63,0.36-0.63,0.54V164.98z M692.5,170.15v0.35h0.31v-0.35H692.5z M692.5,194.12
			v0.35h0.17v-0.35H692.5z M692.82,161.28v0.15h0.35v-0.15H692.82z M693.17,173.86v0.19h0.31v-0.19H693.17z M693.62,165.18v0.35
			h0.66v-0.35H693.62z M693.62,172.97c0.02,0.26,0.14,0.39,0.35,0.39l0.14-0.39H693.62z M693.62,211.33h0.35
			c0-0.23-0.12-0.35-0.35-0.35V211.33z M693.8,214.53h0.49v-0.19c-0.14,0-0.3-0.05-0.49-0.15V214.53z M694.29,162.32v-0.35
			c-0.21,0.03-0.31,0.14-0.31,0.35H694.29z M694.29,208.32c0.05,0.23,0.15,0.35,0.32,0.35h0.49c0-0.21-0.27-0.39-0.8-0.54V208.32z
			 M694.6,165.72v0.15h0.32v-0.15H694.6z M694.6,173.16v0.19h0.32v-0.19H694.6z M694.78,211.52c0.05,0.23,0.15,0.35,0.31,0.35h0.14
			v-0.35c-0.07,0-0.22-0.06-0.46-0.19V211.52z M694.92,213.8h0.66v-0.35c-0.19,0.13-0.41,0.19-0.66,0.19V213.8z M695.09,201.76h0.63
			l0.17-0.39v-0.15c-0.28,0.23-0.55,0.35-0.81,0.35V201.76z M695.58,196.59c0,0.1-0.06,0.28-0.17,0.54h0.32v-0.54H695.58z
			 M695.41,208.67v0.35h0.17v-0.35H695.41z M695.41,210.64v0.15c0.05,0.23,0.15,0.35,0.32,0.35v-0.5H695.41z M695.41,216.31v0.15
			h0.63v-0.15H695.41z M695.72,203l0.17,0.35c0.54-0.23,0.91-0.35,1.12-0.35c0-0.15-0.16-0.33-0.49-0.54
			C696.53,202.82,696.26,203,695.72,203z M695.9,169.61v0.35h0.14v-0.35H695.9z M696.04,171.58c0.05,0.23,0.16,0.35,0.35,0.35
			l0.14-0.35H696.04z M696.38,198.9v0.19h0.32v-0.19H696.38z M696.7,206.89v0.35h0.14v-0.35H696.7z"/>
		<path d="M707.93,155.22h10.64c0.54,0.31,0.8,0.79,0.8,1.43v57.35h13.19c0.42,0.15,0.63,0.68,0.63,1.58v9.96
			c0,0.9-0.27,1.49-0.8,1.78h-24.46l-0.63-0.54c-0.12-7.54-0.17-12.86-0.17-15.98v-36.04c0-3.65,0.06-9.98,0.17-18.99L707.93,155.22
			z M710.66,204.42v0.5h0.17v-0.5H710.66z M710.66,207.59v0.19c0.26,0,0.48,0.06,0.66,0.19l0.14-0.39c0-0.18-0.16-0.35-0.49-0.5
			L710.66,207.59z M711.32,213.45c-0.23,0-0.35-0.12-0.35-0.35c0.12-0.26,0.18-0.44,0.18-0.54c-0.14,0-0.3,0.18-0.49,0.54v0.19h0.31
			v0.69h-0.31c0,0.1,0.06,0.28,0.17,0.54l-0.17,0.89h0.31v-1.08c0.79-0.95,1.39-1.43,1.79-1.43c-0.12-0.26-0.18-0.42-0.18-0.5
			c-0.51,0.69-0.83,1.04-0.94,1.04H711.32z M710.66,217.35v0.54h0.17v-0.54H710.66z M710.97,159.66l-0.14,0.73
			c0.21,0,0.32-0.18,0.32-0.54v-0.19H710.97z M710.83,205.12c0.09,0.21,0.14,0.39,0.14,0.54h0.18c0.21,0,0.31-0.12,0.31-0.35
			L710.83,205.12z M710.83,218.24v0.39h0.14v-0.39H710.83z M710.97,159.15v0.35c0.23,0,0.35-0.12,0.35-0.35H710.97z M710.97,221.79
			v0.19c0.12,0.26,0.18,0.44,0.18,0.54h0.31c-0.21-0.31-0.31-0.55-0.31-0.73H710.97z M711.96,178.84c0,0.59-0.21,0.89-0.63,0.89
			c0.05,0.23,0.15,0.35,0.32,0.35c0.07,0,0.34-0.41,0.8-1.23H711.96z M711.32,194.47l0.8,0.19l0.14-0.39l-0.49-0.35h-0.14
			c-0.21,0.03-0.32,0.14-0.32,0.35V194.47z M711.64,211.68h0.14v-1.04c-0.21,0.03-0.31,0.14-0.31,0.35
			C711.58,211.19,711.64,211.42,711.64,211.68z M711.96,205.66v0.15h0.31v-0.15H711.96z M711.96,209.9v0.54h0.17v-0.54H711.96z
			 M712.13,168.18v0.19h0.32v-0.19H712.13z M712.13,172.47v0.15c0.09,0.21,0.14,0.39,0.14,0.54h0.17v-0.54L712.13,172.47z
			 M712.13,177.25v0.15c0.3,0,0.46,0.18,0.46,0.54c0.21-0.1,0.37-0.15,0.49-0.15c0-0.16-0.16-0.33-0.49-0.54H712.13z M712.27,161.82
			v0.15h0.31v-0.15H712.27z M712.27,207.09v0.35h0.17v-0.35H712.27z M712.44,160.39v0.15h0.32v-0.15H712.44z M712.44,180.8v0.35
			h0.14v-0.35H712.44z M712.44,196.94h0.32v-0.5c-0.21,0.03-0.32,0.14-0.32,0.35V196.94z M712.76,214.19v0.15
			c0,0.15,0.16,0.33,0.49,0.54c0-0.36,0.16-0.54,0.49-0.54v-0.35h-0.17l-0.32,0.19c0-0.26-0.1-0.39-0.32-0.39L712.76,214.19z
			 M712.93,180.26v0.19h0.32v-0.19H712.93z M713.07,187.56v0.15h0.31v-0.15H713.07z M713.07,189.33c0.33,0,0.49,0.23,0.49,0.69h0.49
			c0-0.46,0.16-0.69,0.49-0.69h0.14v-0.19h-0.49c-0.19,0.13-0.4,0.19-0.63,0.19c0-0.26-0.11-0.39-0.32-0.39L713.07,189.33z
			 M713.39,212.57c0,0.18-0.11,0.42-0.31,0.73v0.35l0.66,0.15l0.32-0.5v-0.73H713.39z M713.25,159.31v0.35h0.14v-0.35H713.25z
			 M713.25,160.39v0.15c0.02,0.26,0.13,0.39,0.32,0.39h0.17c0-0.15,0.05-0.33,0.14-0.54H713.25z M713.25,163.59v0.15h0.32v-0.15
			H713.25z M713.39,179.72c0.16-0.1,0.38-0.15,0.67-0.15v-0.39h-0.17c-0.42,0.18-0.63,0.36-0.63,0.54H713.39z M713.39,192.5
			c0,0.26-0.05,0.39-0.14,0.39c0,0.33,0.37,0.57,1.12,0.7v-0.35c-0.54,0-0.8-0.24-0.8-0.73H713.39z M713.56,196.94v0.39h0.49v-0.39
			H713.56z M713.74,195.7v0.35h0.32v-0.35H713.74z M713.88,206.7v0.19h0.49v-0.19H713.88z M714.05,176.17v0.54h0.14v-0.54H714.05z
			 M714.05,187.91v0.16h0.63v-0.16H714.05z M714.05,209.56c0.05,0.23,0.15,0.35,0.32,0.35h0.17c0-0.15-0.16-0.33-0.49-0.54V209.56z
			 M714.05,218.43v0.54h0.14v-0.54H714.05z M714.37,172.47l-0.18,0.69h0.35v-0.69H714.37z M714.54,215.42c0,0.21-0.12,0.44-0.35,0.7
			v0.35h0.67l-0.17-1.04H714.54z M714.19,221.29v0.35c0.3,0,0.57,0.12,0.8,0.35v-0.35c0-0.18-0.21-0.42-0.63-0.73L714.19,221.29z
			 M714.37,161.08v0.19h0.31v-0.19H714.37z M714.86,160.04v-0.39c-0.21,0.03-0.32,0.15-0.32,0.39H714.86z M714.54,206.89v0.54h0.14
			v-0.54H714.54z M714.54,211.87v0.15c0.3,0,0.46,0.3,0.46,0.89h0.18c0-0.08,0.06-0.25,0.17-0.5l-0.66-0.54H714.54z M714.68,183.47
			v0.15H715v-0.15H714.68z M714.68,210.64c0.05,0.23,0.15,0.35,0.31,0.35l0.18-0.35H714.68z M714.86,220.75l0.8-0.19
			c0-0.23-0.1-0.35-0.32-0.35h-0.17c-0.14,0-0.3,0.18-0.49,0.54H714.86z M714.86,182.23v0.35H715v-0.35H714.86z M714.86,192.34
			c0.09,0.21,0.14,0.39,0.14,0.54l-0.14,0.89H715c0.44-0.1,0.67-0.53,0.67-1.27l-0.32-0.15H714.86z M714.86,198.36v0.19h0.32v-0.19
			H714.86z M715,178.3c0.02,0.26,0.14,0.39,0.35,0.39v-0.39H715z M715.17,201.03l-0.18,0.89l0.35,0.19h0.14v-0.19l-0.14-0.35
			c0.09-0.21,0.14-0.39,0.14-0.54H715.17z M715.17,210.1v0.35c0.21,0,0.31-0.12,0.31-0.35H715.17z M715.35,181.85v0.19
			c0.07,0,0.22,0.06,0.46,0.19v-0.39H715.35z M715.35,215.23v0.19c0.05,0.23,0.15,0.35,0.32,0.35v-0.54H715.35z M715.8,180.96v-0.5
			c-0.21,0.03-0.31,0.14-0.31,0.35L715.8,180.96z M715.49,184.36v0.35c0.21,0,0.31-0.12,0.31-0.35H715.49z M715.66,218.09
			c0.09,0.21,0.14,0.39,0.14,0.54h0.35v-0.19c0-0.23-0.12-0.35-0.35-0.35H715.66z M716.47,217.89h0.14c0-0.05,0.06-0.23,0.18-0.54
			l-0.32-0.15c-0.21,0.03-0.32,0.14-0.32,0.35C716.2,217.78,716.3,217.89,716.47,217.89z M716.47,222.52v0.35h0.14v-0.35H716.47z
			 M716.61,219.32v0.19h0.35v-0.19H716.61z M716.96,221.64v0.35h0.14v-0.35H716.96z M718.08,219.13c0,0.1-0.06,0.28-0.17,0.54h0.31
			v-0.54H718.08z M722.1,219.13v-0.35c-0.21,0.03-0.32,0.14-0.32,0.35H722.1z M725.63,218.43v0.19h0.31v-0.19H725.63z
			 M725.95,218.78v0.35h0.17v-0.35H725.95z M728.36,222.87v0.19h0.17c0-0.26,0.1-0.39,0.32-0.39c0-0.23-0.11-0.35-0.32-0.35
			C728.54,222.43,728.48,222.61,728.36,222.87z"/>
		<path d="M762.93,155.22c0.16,0,0.39,0.25,0.67,0.73v11.89c0,0.21-0.22,0.44-0.67,0.69h-13.01v16.17h11.09
			c0.19,0,0.4,0.23,0.63,0.7v11.73c0,0.18-0.21,0.41-0.63,0.7h-11.09v16.17h13.01c0.16,0,0.39,0.23,0.67,0.69v11.93
			c0,0.15-0.22,0.39-0.67,0.69h-24.14c-0.75,0-1.12-0.53-1.12-1.58v-68.89c0-1.08,0.37-1.62,1.12-1.62H762.93z M741.87,161.97h0.14
			l-0.31-0.54c0-0.23,0.33-0.35,0.98-0.35v-0.15h-1.16c-0.21,0.03-0.32,0.14-0.32,0.35S741.43,161.72,741.87,161.97z M741.2,166.95
			v0.35h0.18v-0.35H741.2z M741.2,175.63c0.21,0.31,0.32,0.6,0.32,0.89h0.17v-0.89c0-0.18-0.16-0.35-0.49-0.5V175.63z M741.2,180.07
			v0.54h0.18v-0.54H741.2z M741.2,210.98v1.43h0.18c0-0.72,0.05-1.14,0.14-1.27L741.2,210.98z M741.2,212.57v0.35h0.18v-0.35H741.2z
			 M741.2,213.3v0.5c0.21,0,0.32-0.12,0.32-0.35L741.2,213.3z M741.2,216.31v0.89c0.28,0,0.77,0.12,1.47,0.35v1.08
			c-0.44,0-0.67,0.3-0.67,0.89c0.44,0.15,0.67,0.32,0.67,0.5c-0.28,0.59-0.77,0.89-1.47,0.89v2.51h0.32c0.21,0,0.64-0.18,1.29-0.54
			v-0.19c-0.96,0-1.43-0.12-1.43-0.35c0.42,0,0.69-0.41,0.8-1.24l0.94,0.19c0.65-0.49,0.98-0.78,0.98-0.89l0.49-0.89
			c-1.28-1.08-1.92-1.92-1.92-2.51v-0.16h-0.98c-0.21,0-0.31-0.18-0.31-0.54H741.2z M741.52,185.59v0.54h0.17v-0.54H741.52z
			 M741.69,171.39v0.19c0.12,0.26,0.18,0.42,0.18,0.5l0.31-0.15c-0.12-0.26-0.18-0.44-0.18-0.54H741.69z M742.18,183.12
			c0,0.28-0.16,0.63-0.49,1.04c0,0.15,0.16,0.33,0.49,0.54h0.14c0-0.33,0.12-0.63,0.35-0.89v-0.69H742.18z M742.32,215.77v-0.54
			c-0.12,0-0.27,0.18-0.45,0.54H742.32z M742.32,185.24h0.35c0-0.23-0.12-0.35-0.35-0.35V185.24z M742.67,209.21l-0.18,0.35
			l0.63,0.35c0-0.26,0.06-0.49,0.17-0.69H742.67z M742.81,179.18v0.19l0.32,0.54v0.35h-0.45c0.05,0.23,0.15,0.35,0.31,0.35h0.14
			l0.17-0.89c-0.12-0.26-0.17-0.44-0.17-0.54H742.81z M742.67,218.63h0.14c0.21,0.03,0.32,0.14,0.32,0.35l-0.32,0.15l-0.14-0.35
			V218.63z M743.13,219.67v0.54c-0.21,0-0.32-0.12-0.32-0.35L743.13,219.67z M743.48,177.06c0,0.23-0.16,0.35-0.49,0.35v0.19
			c0.05,0.23,0.15,0.35,0.31,0.35l0.49-0.7L743.48,177.06z M743.13,186.48v0.35h0.17v-0.35H743.13z M743.13,211.87v0.54h0.35
			c-0.12-0.31-0.18-0.49-0.18-0.54H743.13z M743.3,176.37c0.12,0.26,0.18,0.44,0.18,0.54h0.14v-0.54H743.3z M743.48,204.23
			l0.14,0.35v0.35l-0.31,0.54v0.35c0.33-0.08,0.49-0.54,0.49-1.39v-0.39L743.48,204.23z M743.62,216.66
			c0.05,0.23,0.15,0.35,0.32,0.35h0.35c0-0.23-0.12-0.35-0.35-0.35H743.62z M744.74,221.64c0,0.26-0.21,0.49-0.63,0.69
			c0,0.15-0.16,0.33-0.49,0.54c0.12,0.26,0.18,0.44,0.18,0.54h0.31l0.49-0.35c0.19,0.1,0.35,0.15,0.49,0.15
			c0-0.1,0.05-0.15,0.14-0.15l-0.14-0.89v-0.54H744.74z M744.42,214.19h-0.14v0.15c0.3,0,0.45,0.12,0.45,0.35v0.39
			c0,0.33-0.31,0.5-0.94,0.5v0.19c0.19,0,0.4,0.12,0.63,0.35h0.17c0.3,0,0.57-0.71,0.8-2.12c-0.28,0.23-0.5,0.35-0.67,0.35
			L744.42,214.19z M743.79,214.34v0.19h0.31v-0.19H743.79z M744.91,177.95c0,0.59-0.27,0.89-0.8,0.89v0.35l0.18,1.78h0.14
			c0-0.33,0.16-0.5,0.49-0.5h0.49c0-0.36,0.11-0.54,0.31-0.54c-0.12-0.26-0.17-0.44-0.17-0.54l-0.31,0.19
			c-0.21,0-0.32-0.13-0.32-0.39c0.05-0.23,0.15-0.35,0.32-0.35l0.31,0.19v-0.19c-0.3-0.36-0.45-0.66-0.45-0.89H744.91z
			 M744.11,207.97v0.15c0.05,0.23,0.15,0.35,0.32,0.35h0.17v-0.15c0-0.23-0.11-0.35-0.31-0.35H744.11z M744.11,221.64h0.32
			c0-0.23-0.1-0.35-0.32-0.35V221.64z M744.42,170.69v0.35c0.21,0,0.31-0.12,0.31-0.35H744.42z M744.74,159.66v0.54h0.17v-0.54
			H744.74z M745.23,169.07v-0.69c-0.14,0-0.3,0.23-0.49,0.69H745.23z M745.09,174.59c0,0.23-0.12,0.35-0.35,0.35v0.19h0.35
			l0.14-0.39v-0.16H745.09z M744.74,217.55v0.35c0.19,0,0.57,0.36,1.16,1.08h0.14v-0.19c-0.23-0.36-0.4-0.77-0.49-1.23l-0.31,0.19
			h-0.14L744.74,217.55z M744.91,162.16h0.49c0.16,0,0.33-0.24,0.49-0.73h-0.18c-0.37,0.36-0.64,0.54-0.8,0.54V162.16z
			 M744.91,170.15v0.54h0.18v-0.54H744.91z M745.23,176.02v0.15h0.31v-0.15H745.23z M746.03,184.9c0,0.15-0.16,0.45-0.49,0.89
			c-0.09,0.21-0.14,0.37-0.14,0.5c0.09,0.18,0.14,0.42,0.14,0.73c-0.21,0.03-0.31,0.14-0.31,0.35v0.19
			c0.05,0.23,0.15,0.35,0.31,0.35l0.8-3.01H746.03z M745.4,160.74v0.35h0.14v-0.35H745.4z M745.54,163.05v0.15h0.49v-0.15H745.54z
			 M745.54,222.87c0.72,0.36,1.53,0.54,2.42,0.54h0.17v-0.35c-0.35,0-0.62-0.06-0.8-0.19l-0.98,0.19c0-0.18-0.21-0.36-0.63-0.54
			L745.54,222.87z M745.89,172.08l-0.18,0.39v0.35h0.32c0.21,0,0.31-0.12,0.31-0.35L745.89,172.08z M745.72,175.48v0.35h0.18
			c0.21,0,0.31-0.12,0.31-0.35H745.72z M745.72,188.79v0.7l0.32-0.15c-0.09-0.23-0.14-0.41-0.14-0.54H745.72z M745.89,171.39
			c0.05,0.23,0.15,0.35,0.31,0.35h0.14v-0.35H745.89z M746.03,172.97v0.39h0.17v-0.39H746.03z M746.35,182.58v-0.54
			c-0.21,0.03-0.31,0.14-0.31,0.35L746.35,182.58z M746.21,217.74c0,0.23,0.16,0.35,0.49,0.35h0.31v-0.19L746.21,217.74z
			 M746.21,220.75v0.35h0.14v-0.35H746.21z M746.35,220.01v0.39l0.67-0.19c0.75,0,1.12,0.41,1.12,1.23h0.18v-0.35
			c-0.23-0.36-0.35-0.66-0.35-0.89c0.28-0.13,0.44-0.19,0.49-0.19v-0.5c-0.23,0-0.44-0.06-0.63-0.19
			C747.82,219.78,747.33,220.01,746.35,220.01z M746.35,221.29v0.5h0.17v-0.5H746.35z M747.64,160.74v0.19h0.32v-0.19H747.64z
			 M748.76,162.71v-0.39c-0.21-0.28-0.32-0.58-0.32-0.89c-0.21,0.03-0.32,0.15-0.32,0.39C748.46,162.41,748.67,162.71,748.76,162.71
			z M748.62,160.54c0.42,0,0.63,0.18,0.63,0.54v0.19h0.32c0.14,0,0.3-0.18,0.49-0.54c-0.3,0-0.62-0.18-0.94-0.54
			c-0.28,0.13-0.44,0.19-0.49,0.19V160.54z M748.62,219.13v0.39h0.31v-0.39H748.62z M748.76,220.55v0.89h0.35
			c0.21,0,0.31-0.12,0.31-0.35c-0.33,0-0.49-0.18-0.49-0.54H748.76z M748.94,162.86v0.35h0.18v-0.35H748.94z M749.57,223.41h0.17
			c0.23-0.13,0.4-0.19,0.49-0.19v-0.15h-0.17c-0.19,0.1-0.35,0.15-0.49,0.15V223.41z M749.92,162.71v0.35h0.31v-0.35H749.92z
			 M750.37,160.2v0.35h0.17v-0.35H750.37z M750.86,223.41h0.32c0-0.23-0.11-0.71-0.32-1.43c-0.23,0.13-0.4,0.19-0.49,0.19
			C750.7,222.77,750.86,223.18,750.86,223.41z M750.54,163.75v0.19c0.05,0.23,0.15,0.35,0.32,0.35v-0.54H750.54z M751.53,218.78
			v0.35h0.14v-0.35H751.53z M751.67,217.89v0.73h0.17c0-0.15,0.05-0.33,0.14-0.54L751.67,217.89z M751.98,219.86v0.15h0.35v-0.15
			H751.98z M752.47,160.04v0.5h0.17v-0.5H752.47z M752.79,192v0.35c0.23,0,0.35-0.12,0.35-0.35H752.79z M753.45,159.15v0.35
			c0.23-0.13,0.4-0.19,0.49-0.19v-0.15H753.45z M754.39,191.26v0.35h0.66v-0.15L754.39,191.26z M754.57,164.64h0.32v-0.54
			c-0.21,0.03-0.32,0.15-0.32,0.39V164.64z M754.57,222.18v0.15c0.09,0,0.26,0.06,0.49,0.19h0.14v-0.19c-0.12,0-0.27-0.05-0.46-0.15
			H754.57z M757.3,220.55v-0.35c-0.21,0.03-0.32,0.14-0.32,0.35H757.3z M757.61,189.14v0.35h0.17c0.19-0.1,0.35-0.15,0.49-0.15
			v-0.19H757.61z M758.42,219.32v0.19h0.49v-0.19H758.42z M758.42,220.01v0.19c0.12,0.21,0.17,0.44,0.17,0.69h0.18v-0.35
			c-0.12-0.26-0.18-0.44-0.18-0.54H758.42z M758.59,222.87v0.35h0.32v-0.35H758.59z M758.91,221.44v0.35h0.17v-0.35H758.91z"/>
	</g>
	<g>
		<path d="M576.27,521.74c0.16,0,0.39,0.25,0.67,0.73v11.89c0,0.21-0.22,0.44-0.67,0.69h-13.02v16.17h11.09
			c0.19,0,0.4,0.23,0.63,0.7v11.73c0,0.18-0.21,0.41-0.63,0.7h-11.09v12.97c0,3.11-0.06,8.44-0.17,15.98l-0.63,0.54h-10.32
			c-0.75,0-1.12-0.53-1.12-1.58v-68.89c0-1.08,0.37-1.62,1.12-1.62H576.27z M554.55,583.88v0.39h0.18v-0.39H554.55z M555.04,588.31
			v0.39h0.17v-0.39H555.04z M555.67,589.2h-0.14l-0.31-0.15l-0.17,0.35c0.05,0.23,0.15,0.35,0.31,0.35c0.21,0,0.31-0.12,0.31-0.35
			l1.15,0.19h0.63v-0.19c0-0.15-0.16-0.33-0.49-0.54l-0.63,0.54h-0.18v-0.54L555.67,589.2z M555.67,568.79
			c0.02,0.26,0.14,0.39,0.35,0.39v-0.39H555.67z M555.67,575c0.12,0.21,0.18,0.57,0.18,1.08h0.31l-0.14-1.08H555.67z M556.16,559.91
			l-0.14,0.39v0.5h0.14c0-0.46,0.1-0.69,0.31-0.69v-0.19H556.16z M557.28,585.65c0,0.49-0.1,0.73-0.31,0.73h-0.49l-0.45-0.35v0.5
			c0.72,0.26,1.14,0.39,1.26,0.39h0.18c0-0.33,0.1-0.63,0.31-0.89L557.28,585.65z M556.16,581.95v0.15h0.67v-0.15H556.16z
			 M556.33,588.16v0.35h0.14v-0.35H556.33z M557.14,588.7c0-0.18,0.16-0.48,0.49-0.89h-0.35c-0.14,0-0.29,0.17-0.45,0.5
			C556.85,588.57,556.95,588.7,557.14,588.7z M557.14,581.21h0.31v-0.69c-0.21,0.03-0.31,0.14-0.31,0.35V581.21z M557.45,549.45
			c0,0.1-0.06,0.28-0.18,0.54c0.16,0,0.39,0.12,0.67,0.35h0.14v-0.19c-0.3,0-0.45-0.23-0.45-0.69H557.45z M557.28,553.35v0.35h0.18
			v-0.35H557.28z M557.28,555.47v0.19h0.35v-0.19H557.28z M557.94,583.37c0,0.16-0.1,0.39-0.31,0.7h0.63v-0.19
			c-0.12-0.26-0.18-0.42-0.18-0.5H557.94z M557.77,588.85l-0.14,0.35h1.12v-0.15L557.77,588.85z M558.26,589.74v0.19h1.12
			c0-0.15-0.16-0.33-0.49-0.54C558.89,589.63,558.68,589.74,558.26,589.74z M558.43,582.29v0.35h0.14v-0.35H558.43z M559.24,588.31
			h0.14v-0.15c0-0.54-0.16-1.31-0.49-2.32c-0.21,0-0.31,0.18-0.31,0.54C558.57,586.85,558.79,587.49,559.24,588.31z M559.24,581.21
			v0.54h0.14v-0.54H559.24z M559.55,559.91c0.21,0,0.31-0.12,0.31-0.35v-0.15c-0.21,0.03-0.31,0.14-0.31,0.35V559.91z
			 M560.04,555.13v0.35h0.14v-0.35H560.04z M560.5,558.52c0.05,0.23,0.16,0.35,0.35,0.35l0.14-0.35H560.5z M560.67,526.03v0.35h0.17
			v-0.35H560.67z M561.16,526.91h0.31v-0.54c-0.21,0.03-0.31,0.14-0.31,0.35V526.91z M564.87,526.57v0.15h0.31v-0.15H564.87z
			 M565.5,528.15v0.35h0.31v-0.35H565.5z M565.5,531.16h0.31c0-0.23-0.1-0.35-0.31-0.35V531.16z M567.91,526.91v0.15h0.31v-0.15
			H567.91z M568.4,558.33h0.31c0-0.23-0.1-0.35-0.31-0.35V558.33z M568.54,529.73v0.19h0.35v-0.19H568.54z M569.03,528.5v0.35h0.17
			v-0.35H569.03z M571.13,529.23v0.15h0.31v-0.15H571.13z M572.25,525.68c0,0.26-0.16,0.67-0.49,1.24h0.35
			c0.3-0.67,0.45-1.08,0.45-1.24H572.25z M572.74,527.96c0.33,0.41,0.49,0.77,0.49,1.08h0.31v-0.89c-0.26,0-0.52-0.12-0.8-0.35
			V527.96z"/>
		<path d="M609.51,527.45c0.86,1.72,1.29,4.73,1.29,9.03v40.48c0,7.38-1.77,12.18-5.32,14.4c-1.94,1.65-4.84,2.47-8.71,2.47h-0.94
			c-6.48,0-10.67-3.07-12.56-9.22c-0.54-1.78-0.8-3.61-0.8-5.52v-44.73c0-7.18,2.89-11.85,8.68-14.01c1.54-0.49,3.37-0.73,5.49-0.73
			C603.22,519.62,607.51,522.23,609.51,527.45z M586.98,532.78v0.16h0.31v-0.16H586.98z M587.47,528.5v0.19h0.45v-0.19H587.47z
			 M587.61,531.51v0.19h0.31v-0.19H587.61z M588.1,527.61v0.54c0.33,0,0.49,0.23,0.49,0.7c0.16,0,0.33-0.17,0.49-0.5v-0.39
			l-0.35,0.19c-0.21,0-0.31-0.18-0.31-0.54H588.1z M589.08,527.45v0.15h0.63v-0.15H589.08z M589.08,564.89v0.35h0.31v-0.35H589.08z
			 M589.08,566.66v0.19c0.21,0,0.31,0.3,0.31,0.89l0.31-0.19c-0.14-0.59-0.3-0.89-0.49-0.89H589.08z M589.4,529.92v0.35h0.14v-0.35
			H589.4z M589.54,569.67v0.19h0.35v-0.19H589.54z M589.54,587.08c0.05,0.23,0.16,0.35,0.35,0.35h0.63c0-0.23-0.33-0.46-0.98-0.69
			V587.08z M590.03,525.83c0.16,0,0.38-0.23,0.66-0.69h-0.17c-0.14,0-0.3,0.18-0.49,0.54V525.83z M590.83,529.23v0.35H591v-0.35
			H590.83z M591.14,585.65v0.19h0.35v-0.19H591.14z M591.49,587.62v0.35h0.31v-0.35H591.49z M592.12,588.85v0.19h0.31v-0.19H592.12z
			 M592.3,526.57v0.15h0.31v-0.15H592.3z M593.42,587.27v-0.35c-0.21,0.03-0.31,0.14-0.31,0.35H593.42z M593.42,588.51v0.19
			c0.09,0.18,0.14,0.41,0.14,0.69h0.17v-0.69L593.42,588.51z M593.73,577.66c0,2.5,0.86,3.74,2.59,3.74h0.8
			c1.61,0,2.41-1.71,2.41-5.13v-39.06c0-3.55-0.97-5.33-2.9-5.33c-1.94,0.23-2.9,1.53-2.9,3.9V577.66z M602.1,546.09v0.35h0.17
			v-0.35H602.1z M602.59,537.72l0.98,0.19v-0.69h-0.18c-0.23,0.23-0.5,0.35-0.8,0.35V537.72z M602.9,545.36v0.19h0.31v-0.19H602.9z
			 M603.08,534.36v0.19h0.49v-0.19H603.08z M603.22,553.89v0.35h0.8c0-0.23-0.1-0.35-0.31-0.35H603.22z M603.22,564.19
			c0.05,0.23,0.16,0.35,0.35,0.35c0.21,0,0.31-0.12,0.31-0.35H603.22z M603.39,533.28v0.39h0.18v-0.39H603.39z M603.39,544.82v0.54
			h0.18v-0.54H603.39z M603.57,534.71v0.54h0.14v-0.54H603.57z M603.88,539.5v0.39l0.31,0.5v0.19c0,0.23-0.21,0.35-0.63,0.35v0.35
			h0.14c0.54-0.46,0.86-0.7,0.98-0.7v-0.54c0-0.15-0.16-0.33-0.49-0.54H603.88z M603.57,550.88v0.35h0.45c0-0.23-0.1-0.35-0.31-0.35
			H603.57z M603.71,526.03v0.15h0.31v-0.15H603.71z M603.71,536.48v0.54h0.31c-0.09-0.21-0.14-0.39-0.14-0.54H603.71z
			 M603.88,547.68v0.35h0.14v-0.35H603.88z M604.02,528.69v0.35c0.23,0,0.35-0.12,0.35-0.35H604.02z M604.02,530.27v0.54h0.17v-0.54
			H604.02z M604.19,541.66V542h0.31v-0.35H604.19z M604.51,548.76H605v-0.73c-0.23,0.23-0.5,0.35-0.8,0.35
			C604.22,548.63,604.32,548.76,604.51,548.76z M604.51,531.16h0.67l0.14-0.35h-0.14c-0.19,0.13-0.41,0.19-0.67,0.19V531.16z
			 M604.51,533.82H605v-0.35c-0.23,0.13-0.4,0.19-0.49,0.19V533.82z M605,553c0,0.1-0.06,0.28-0.17,0.54
			c0.19,0.46,0.35,0.69,0.49,0.69V553H605z M606.92,534.17c0,0.26-0.16,0.39-0.49,0.39l0.17,0.35l-0.49,1.04
			c0.35,0,0.62,0.3,0.8,0.89c0,0.15-0.16,0.33-0.49,0.54h-0.45v-0.35l0.14-0.35l-0.31-0.19h-0.63v0.19l1.61,1.23h0.14
			c0-0.72,0.16-1.08,0.49-1.08l-0.31-0.5c0-0.13,0.05-0.19,0.14-0.19c-0.21-0.62-0.31-1.09-0.31-1.43l0.18-0.35v-0.19H606.92z
			 M605.17,546.44l0.14,0.89h0.17v-0.89H605.17z M605.31,527.61v0.35h0.17v-0.35H605.31z M606.78,541.46c0,0.39-0.49,0.68-1.47,0.89
			v1.24h0.17c0-0.67,0.27-1.14,0.81-1.43h0.31c0.21,0.03,0.31,0.15,0.31,0.39c0.23-0.13,0.4-0.19,0.49-0.19l-0.17-0.89H606.78z
			 M606.29,531.89c0,0.33-0.27,0.5-0.81,0.5v0.39l0.14,0.35c0.28-0.13,0.44-0.19,0.49-0.19l0.8,0.19v-1.23H606.29z M605.49,559.41
			v0.15h0.31v-0.15H605.49z M605.63,528.69v0.35h0.17v-0.35H605.63z M605.63,533.67v0.35h0.17v-0.35H605.63z M605.98,544.47v-0.35
			c-0.23,0.03-0.35,0.14-0.35,0.35H605.98z M605.63,549.26l0.67,0.19l0.31-0.54c-0.12,0-0.17-0.05-0.17-0.15
			c-0.16,0.1-0.43,0.15-0.8,0.15V549.26z M605.8,550.15c0,0.28-0.06,0.53-0.17,0.73h0.67v-0.35c0-0.26-0.1-0.39-0.31-0.39H605.8z
			 M605.63,556.01v0.35h0.17v-0.35H605.63z M605.63,564.19v0.15l0.8,0.19v-0.35l-0.31,0.15l-0.31-0.15H605.63z M605.8,529.58h0.31
			c0-0.23-0.1-0.35-0.31-0.35V529.58z M606.43,544.67l0.17,0.35v0.54h-0.17l-0.31-0.19l-0.31,0.54c0.19,0,0.4,0.12,0.63,0.35
			c0-0.23,0.33-0.82,0.98-1.77v-0.15c-0.12-0.31-0.17-0.49-0.17-0.54L606.43,544.67z M605.98,544.67v0.54
			c0.21,0,0.31-0.13,0.31-0.39L605.98,544.67z M606.12,554.59v0.19h0.31v-0.19H606.12z M606.12,557.79c0.16,0,0.38-0.23,0.67-0.7
			h-0.18c-0.14,0-0.3,0.18-0.49,0.54V557.79z M606.29,543.43v0.15c0.05,0.23,0.15,0.35,0.31,0.35c0.33-0.8,0.49-1.21,0.49-1.23
			c-0.16,0-0.39,0.24-0.67,0.73H606.29z M606.29,547.48v0.39h1.12v-0.19l-0.8-0.19H606.29z M606.43,551.92
			c0,0.26,0.22,0.39,0.67,0.39v0.35c0,0.23-0.1,0.35-0.31,0.35c-0.12-0.26-0.18-0.44-0.18-0.54l-0.31,0.19
			c0.09,0.18,0.14,0.41,0.14,0.69l0.98-0.15v-1.08L606.43,551.92z M606.29,561.88c0.05,0.23,0.15,0.35,0.31,0.35v-0.35H606.29z
			 M606.43,546.79h0.35c0-0.23-0.12-0.35-0.35-0.35V546.79z M606.61,555.67l-0.17,0.69c0.21-0.1,0.37-0.15,0.49-0.15
			c-0.09-0.21-0.14-0.39-0.14-0.54H606.61z M607.41,566.32c0-0.23-0.1-0.35-0.31-0.35h-0.31c-0.23,0.03-0.35,0.14-0.35,0.35H607.41z
			 M606.92,558.52c-0.07,0.46-0.17,0.7-0.31,0.7c0.12,0.26,0.18,0.44,0.18,0.54h0.14c0-0.69,0.06-1.11,0.18-1.24H606.92z
			 M606.78,569.67v0.19h0.45v-0.19H606.78z M606.92,539.69c0.12,0.82,0.28,1.24,0.49,1.24v-0.54l-0.17-0.89L606.92,539.69z
			 M606.92,549.1h0.49v-0.35c-0.09,0-0.26-0.06-0.49-0.19V549.1z M607.24,538.11v0.35h0.17v-0.35H607.24z M607.24,546.25v0.54h0.17
			v-0.54H607.24z"/>
		<path d="M646.77,527.45c0.86,1.72,1.29,4.73,1.29,9.03v40.48c0,7.38-1.77,12.18-5.32,14.4c-1.94,1.65-4.84,2.47-8.71,2.47h-0.94
			c-6.48,0-10.67-3.07-12.56-9.22c-0.54-1.78-0.8-3.61-0.8-5.52v-44.73c0-7.18,2.89-11.85,8.68-14.01c1.54-0.49,3.37-0.73,5.49-0.73
			C640.48,519.62,644.77,522.23,646.77,527.45z M624.24,532.78v0.16h0.31v-0.16H624.24z M624.73,528.5v0.19h0.45v-0.19H624.73z
			 M624.87,531.51v0.19h0.31v-0.19H624.87z M625.36,527.61v0.54c0.33,0,0.49,0.23,0.49,0.7c0.16,0,0.33-0.17,0.49-0.5v-0.39
			l-0.35,0.19c-0.21,0-0.31-0.18-0.31-0.54H625.36z M626.34,527.45v0.15h0.63v-0.15H626.34z M626.34,564.89v0.35h0.31v-0.35H626.34z
			 M626.34,566.66v0.19c0.21,0,0.31,0.3,0.31,0.89l0.31-0.19c-0.14-0.59-0.3-0.89-0.49-0.89H626.34z M626.66,529.92v0.35h0.14v-0.35
			H626.66z M626.8,569.67v0.19h0.35v-0.19H626.8z M626.8,587.08c0.05,0.23,0.16,0.35,0.35,0.35h0.63c0-0.23-0.33-0.46-0.98-0.69
			V587.08z M627.29,525.83c0.16,0,0.38-0.23,0.66-0.69h-0.17c-0.14,0-0.3,0.18-0.49,0.54V525.83z M628.09,529.23v0.35h0.17v-0.35
			H628.09z M628.41,585.65v0.19h0.35v-0.19H628.41z M628.76,587.62v0.35h0.31v-0.35H628.76z M629.39,588.85v0.19h0.31v-0.19H629.39z
			 M629.56,526.57v0.15h0.31v-0.15H629.56z M630.68,587.27v-0.35c-0.21,0.03-0.31,0.14-0.31,0.35H630.68z M630.68,588.51v0.19
			c0.09,0.18,0.14,0.41,0.14,0.69H631v-0.69L630.68,588.51z M631,577.66c0,2.5,0.86,3.74,2.59,3.74h0.8c1.61,0,2.41-1.71,2.41-5.13
			v-39.06c0-3.55-0.97-5.33-2.9-5.33c-1.94,0.23-2.9,1.53-2.9,3.9V577.66z M639.36,546.09v0.35h0.17v-0.35H639.36z M639.85,537.72
			l0.98,0.19v-0.69h-0.18c-0.23,0.23-0.5,0.35-0.8,0.35V537.72z M640.16,545.36v0.19h0.31v-0.19H640.16z M640.34,534.36v0.19h0.49
			v-0.19H640.34z M640.48,553.89v0.35h0.8c0-0.23-0.1-0.35-0.31-0.35H640.48z M640.48,564.19c0.05,0.23,0.16,0.35,0.35,0.35
			c0.21,0,0.31-0.12,0.31-0.35H640.48z M640.65,533.28v0.39h0.18v-0.39H640.65z M640.65,544.82v0.54h0.18v-0.54H640.65z
			 M640.83,534.71v0.54h0.14v-0.54H640.83z M641.14,539.5v0.39l0.31,0.5v0.19c0,0.23-0.21,0.35-0.63,0.35v0.35h0.14
			c0.54-0.46,0.86-0.7,0.98-0.7v-0.54c0-0.15-0.16-0.33-0.49-0.54H641.14z M640.83,550.88v0.35h0.45c0-0.23-0.1-0.35-0.31-0.35
			H640.83z M640.97,526.03v0.15h0.31v-0.15H640.97z M640.97,536.48v0.54h0.31c-0.09-0.21-0.14-0.39-0.14-0.54H640.97z
			 M641.14,547.68v0.35h0.14v-0.35H641.14z M641.28,528.69v0.35c0.23,0,0.35-0.12,0.35-0.35H641.28z M641.28,530.27v0.54h0.17v-0.54
			H641.28z M641.46,541.66V542h0.31v-0.35H641.46z M641.77,548.76h0.49v-0.73c-0.23,0.23-0.5,0.35-0.8,0.35
			C641.48,548.63,641.58,548.76,641.77,548.76z M641.77,531.16h0.67l0.14-0.35h-0.14c-0.19,0.13-0.41,0.19-0.67,0.19V531.16z
			 M641.77,533.82h0.49v-0.35c-0.23,0.13-0.4,0.19-0.49,0.19V533.82z M642.26,553c0,0.1-0.06,0.28-0.17,0.54
			c0.19,0.46,0.35,0.69,0.49,0.69V553H642.26z M644.19,534.17c0,0.26-0.16,0.39-0.49,0.39l0.17,0.35l-0.49,1.04
			c0.35,0,0.62,0.3,0.8,0.89c0,0.15-0.16,0.33-0.49,0.54h-0.45v-0.35l0.14-0.35l-0.31-0.19h-0.63v0.19l1.61,1.23h0.14
			c0-0.72,0.16-1.08,0.49-1.08l-0.31-0.5c0-0.13,0.05-0.19,0.14-0.19c-0.21-0.62-0.31-1.09-0.31-1.43l0.18-0.35v-0.19H644.19z
			 M642.44,546.44l0.14,0.89h0.17v-0.89H642.44z M642.58,527.61v0.35h0.17v-0.35H642.58z M644.05,541.46c0,0.39-0.49,0.68-1.47,0.89
			v1.24h0.17c0-0.67,0.27-1.14,0.81-1.43h0.31c0.21,0.03,0.31,0.15,0.31,0.39c0.23-0.13,0.4-0.19,0.49-0.19l-0.17-0.89H644.05z
			 M643.56,531.89c0,0.33-0.27,0.5-0.81,0.5v0.39l0.14,0.35c0.28-0.13,0.44-0.19,0.49-0.19l0.8,0.19v-1.23H643.56z M642.75,559.41
			v0.15h0.31v-0.15H642.75z M642.89,528.69v0.35h0.17v-0.35H642.89z M642.89,533.67v0.35h0.17v-0.35H642.89z M643.24,544.47v-0.35
			c-0.23,0.03-0.35,0.14-0.35,0.35H643.24z M642.89,549.26l0.67,0.19l0.31-0.54c-0.12,0-0.17-0.05-0.17-0.15
			c-0.16,0.1-0.43,0.15-0.8,0.15V549.26z M643.07,550.15c0,0.28-0.06,0.53-0.17,0.73h0.67v-0.35c0-0.26-0.1-0.39-0.31-0.39H643.07z
			 M642.89,556.01v0.35h0.17v-0.35H642.89z M642.89,564.19v0.15l0.8,0.19v-0.35l-0.31,0.15l-0.31-0.15H642.89z M643.07,529.58h0.31
			c0-0.23-0.1-0.35-0.31-0.35V529.58z M643.7,544.67l0.17,0.35v0.54h-0.17l-0.31-0.19l-0.31,0.54c0.19,0,0.4,0.12,0.63,0.35
			c0-0.23,0.33-0.82,0.98-1.77v-0.15c-0.12-0.31-0.17-0.49-0.17-0.54L643.7,544.67z M643.24,544.67v0.54c0.21,0,0.31-0.13,0.31-0.39
			L643.24,544.67z M643.38,554.59v0.19h0.31v-0.19H643.38z M643.38,557.79c0.16,0,0.38-0.23,0.67-0.7h-0.18
			c-0.14,0-0.3,0.18-0.49,0.54V557.79z M643.56,543.43v0.15c0.05,0.23,0.15,0.35,0.31,0.35c0.33-0.8,0.49-1.21,0.49-1.23
			c-0.16,0-0.39,0.24-0.67,0.73H643.56z M643.56,547.48v0.39h1.12v-0.19l-0.8-0.19H643.56z M643.7,551.92
			c0,0.26,0.22,0.39,0.67,0.39v0.35c0,0.23-0.1,0.35-0.31,0.35c-0.12-0.26-0.18-0.44-0.18-0.54l-0.31,0.19
			c0.09,0.18,0.14,0.41,0.14,0.69l0.98-0.15v-1.08L643.7,551.92z M643.56,561.88c0.05,0.23,0.15,0.35,0.31,0.35v-0.35H643.56z
			 M643.7,546.79h0.35c0-0.23-0.12-0.35-0.35-0.35V546.79z M643.87,555.67l-0.17,0.69c0.21-0.1,0.37-0.15,0.49-0.15
			c-0.09-0.21-0.14-0.39-0.14-0.54H643.87z M644.67,566.32c0-0.23-0.1-0.35-0.31-0.35h-0.31c-0.23,0.03-0.35,0.14-0.35,0.35H644.67z
			 M644.19,558.52c-0.07,0.46-0.17,0.7-0.31,0.7c0.12,0.26,0.18,0.44,0.18,0.54h0.14c0-0.69,0.06-1.11,0.18-1.24H644.19z
			 M644.05,569.67v0.19h0.45v-0.19H644.05z M644.19,539.69c0.12,0.82,0.28,1.24,0.49,1.24v-0.54l-0.17-0.89L644.19,539.69z
			 M644.19,549.1h0.49v-0.35c-0.09,0-0.26-0.06-0.49-0.19V549.1z M644.5,538.11v0.35h0.17v-0.35H644.5z M644.5,546.25v0.54h0.17
			v-0.54H644.5z"/>
		<path d="M681.34,521.74c0.19,0,0.4,0.25,0.63,0.73v11.89c0,0.18-0.21,0.41-0.63,0.69h-7.42v57.54c0,0.82-0.37,1.24-1.12,1.24
			h-9.97c-0.75,0-1.12-0.41-1.12-1.24v-57.54h-7.59c-0.42-0.13-0.63-0.66-0.63-1.58v-9.96c0-0.9,0.27-1.49,0.8-1.78H681.34z
			 M657.83,529.04v0.19h0.49v-0.19H657.83z M659.61,528.69v0.16h0.31v-0.16H659.61z M659.75,530.46v0.15
			c0.02,0.26,0.14,0.39,0.35,0.39l0.14-0.39v-0.15H659.75z M660.1,526.03c0,0.18,0.15,0.36,0.45,0.54c0.44-0.26,0.83-0.39,1.15-0.39
			v-0.15H660.1z M660.1,528.15v0.35h0.14v-0.35H660.1z M661.22,528.69v0.35h0.14v-0.35H661.22z M662.34,526.72
			c0,0.21-0.1,0.5-0.31,0.89h0.31c0-0.26,0.06-0.49,0.18-0.69v-0.19H662.34z M662.97,530.46l0.17-0.35v-0.39h-0.17
			c-0.21,0.03-0.31,0.16-0.31,0.39C662.7,530.35,662.81,530.46,662.97,530.46z M663.78,527.8c0.05,0.23,0.16,0.35,0.35,0.35v-0.35
			H663.78z M663.95,528.84v0.39h0.18l0.45-0.39c0.28,0.23,0.67,0.41,1.15,0.54l0.14-0.35c-0.19,0-0.77-0.18-1.75-0.54L663.95,528.84
			z M664.13,529.92c0,0.1-0.06,0.28-0.18,0.54c0.19,0,0.4,0.12,0.63,0.35c0-0.23,0.27-0.35,0.8-0.35v-0.35l-0.31,0.15h-0.49
			L664.13,529.92z M664.44,531.01v0.35h0.14v-0.35H664.44z M664.76,526.18v0.89h0.31c0-0.46,0.1-0.7,0.31-0.7h0.35l0.31,0.19
			c0-0.13,0.05-0.19,0.14-0.19c-0.14-0.46-0.29-0.69-0.45-0.69C665.64,526.01,665.32,526.18,664.76,526.18z M665.07,532.78v0.35
			h0.18v-0.35H665.07z M665.07,536.48c0.05,0.23,0.15,0.35,0.31,0.35c0.23,0,0.35-0.12,0.35-0.35v-0.15c-0.19,0-0.41-0.13-0.67-0.39
			V536.48z M665.25,527.45v0.15c0,0.15,0.16,0.33,0.49,0.54h0.8v-0.19c-0.33,0-0.49-0.17-0.49-0.5H665.25z M665.39,567.9v0.39h0.18
			v-0.39H665.39z M665.56,531.16v0.19h0.31v-0.19H665.56z M665.56,564.19v0.35c0.21,0,0.31-0.12,0.31-0.35H665.56z M665.74,534.71
			h0.45v-0.35c-0.23,0.13-0.38,0.19-0.45,0.19V534.71z M665.88,532.78v0.16h0.31v-0.16H665.88z M666.05,535.6h0.31
			c0-0.23-0.1-0.35-0.31-0.35V535.6z M666.37,525.83v0.19h0.31v-0.19H666.37z M667.17,529.92c0,0.51-0.27,0.88-0.8,1.08v0.15
			c0.33,0,0.49,0.12,0.49,0.35l-0.18,0.39h0.49l-0.18-0.89c0.33-0.51,0.49-0.88,0.49-1.08H667.17z M666.68,529.38l1.61,0.19
			l-0.49-0.89v-0.35c0.02-0.26,0.14-0.39,0.35-0.39c0.02,0.26,0.13,0.39,0.31,0.39c0.19-0.13,0.4-0.19,0.63-0.19v-0.35l-0.31,0.15
			c-0.19,0-0.51-0.12-0.98-0.35c-0.28,0-0.65,0.54-1.12,1.62V529.38z M666.68,567.2c0.05,0.23,0.15,0.35,0.31,0.35h0.18v-0.35
			H666.68z M667.17,527.26c0-0.23,0.21-0.35,0.63-0.35l-0.14-0.35c-0.33,0.1-0.55,0.33-0.67,0.69H667.17z M667.17,533.13
			c0,0.05-0.06,0.23-0.18,0.54v0.35h0.18c0-0.28,0.06-0.53,0.17-0.73v-0.15H667.17z M667.17,535.25c0.12,0.46,0.38,0.69,0.8,0.69
			v-0.35c-0.16,0-0.37-0.12-0.63-0.35H667.17z M667.35,563.85c0.05,0.23,0.15,0.35,0.31,0.35v-0.35H667.35z M667.66,545.21v0.16
			h0.31v-0.16H667.66z M667.8,533.67v0.35h0.18v-0.35H667.8z M667.8,570.22v0.19h0.35v-0.19H667.8z M667.98,525.68v0.35h0.8v-0.35
			H667.98z M667.98,530.46c0.33,0.41,0.49,0.71,0.49,0.89h0.49v-0.73c-0.4,0-0.72-0.12-0.98-0.35V530.46z M667.98,537.37v0.35h0.17
			v-0.35H667.98z M668.15,536.68v0.15h0.31v-0.15H668.15z M668.29,526.91v0.15c0.19,0,0.41,0.13,0.67,0.39v-0.54H668.29z
			 M668.96,534.36h0.31v-0.35c0-0.23-0.1-0.35-0.31-0.35V534.36z M669.1,530.12c0.23-0.13,0.4-0.19,0.49-0.19v-0.19
			c0-0.18-0.16-0.35-0.49-0.5V530.12z M669.1,562.96v0.35h0.31v-0.35H669.1z M669.41,525.68v0.5h0.35c0-0.13,0.05-0.3,0.14-0.5
			H669.41z M669.41,528.84v0.19h0.35v-0.19H669.41z M669.9,529.04c0,0.21,0.49,0.68,1.47,1.43v-0.35c-0.33,0-0.55-0.3-0.66-0.89
			L669.9,529.04z M670.39,526.91v0.35h0.8v-0.19L670.39,526.91z M671.2,526.03v0.35h0.17v-0.35H671.2z M672.31,527.07l-0.63,1.27
			h0.8l0.14-1.08L672.31,527.07z M672.49,525.68l0.14,0.89h0.17v-0.89H672.49z M672.49,529.58v0.35h0.14v-0.35H672.49z
			 M672.49,530.62v0.19c0.26,0,0.52,0.12,0.8,0.35v-0.7L672.49,530.62z M673.29,527.07v0.39h0.31v-0.39H673.29z M674.24,527.07
			c0.21-0.1,0.37-0.15,0.49-0.15c-0.09-0.21-0.14-0.39-0.14-0.54h-0.17c-0.14,0-0.3,0.18-0.49,0.54L674.24,527.07z M674.59,525.83
			v0.35c0.35,0,0.62,0.06,0.8,0.19v-0.35L674.59,525.83z M674.9,527.45h0.31c0-0.26-0.1-0.39-0.31-0.39V527.45z M675.71,529.58v0.35
			h0.14v-0.35H675.71z M675.85,527.61c0.12,0.21,0.17,0.45,0.17,0.73h0.17v-0.89L675.85,527.61z M676.2,530.46v0.54h0.14v-0.54
			H676.2z M676.34,525.68c0.21,0.26,0.31,0.55,0.31,0.89h0.17v-0.73l-0.31-0.15H676.34z"/>
		<path d="M699.88,521.74c6.62,0,10.81,1.72,12.56,5.17c1.73,2.57,2.59,6.12,2.59,10.65v11.19c0,3.86-1.03,6.87-3.08,9.03
			c2.05,2.16,3.08,5.18,3.08,9.07v11.19c0,7.8-2.58,12.76-7.73,14.9c-1.49,0.59-4.5,0.89-9.03,0.89h-10.46
			c-0.75,0-1.12-0.41-1.12-1.24v-69.58c0-0.85,0.37-1.27,1.12-1.27H699.88z M690.09,567.9l0.8,0.19v-0.35
			c-0.35,0-0.62-0.06-0.8-0.19V567.9z M690.72,572.53c0,0.36-0.21,0.54-0.63,0.54l0.14,0.89l-0.14,0.35v0.19h0.14
			c0-0.36,0.33-0.54,0.98-0.54l-0.17-0.35v-0.19l0.17-0.89H690.72z M690.4,580.17c0,0.18-0.11,0.41-0.32,0.7v0.89h0.14l0.49-0.35
			c-0.12-0.51-0.17-0.93-0.17-1.24H690.4z M690.09,582.29v0.35c0.16,0,0.43,0.18,0.8,0.54h0.32v-0.19
			c-0.21-0.28-0.32-0.51-0.32-0.69H690.09z M690.09,583.72v0.69h0.32c-0.12-0.21-0.17-0.44-0.17-0.69H690.09z M690.09,585.84
			c0.21,0.8,0.32,1.27,0.32,1.43l1.43-1.24h0.17l0.31,0.15v-0.35c-0.33,0-0.49-0.12-0.49-0.35s0.33-0.35,0.98-0.35v-0.19
			c-0.75,0-1.12-0.36-1.12-1.08c-0.86,0.95-1.4,1.43-1.61,1.43V585.84z M690.09,587.43v0.89c1.05,0.13,1.63,0.19,1.75,0.19v-0.89
			h-0.32c0,0.46-0.1,0.7-0.31,0.7l-0.98-0.89H690.09z M690.23,530.12c0.05,0.23,0.15,0.35,0.31,0.35v-0.35H690.23z M690.23,565.62
			v0.15h0.31v-0.15H690.23z M690.23,570.95v0.16h0.31v-0.16H690.23z M691.52,585.3v0.19c0,0.18-0.21,0.41-0.63,0.69h-0.17
			c-0.21,0-0.31-0.12-0.31-0.35v-0.19c0.21-0.46,0.52-0.69,0.94-0.69L691.52,585.3z M690.72,579.44v0.39h0.17v-0.39H690.72z
			 M691.21,571.64v0.54h0.14v-0.54H691.21z M691.35,580.87v0.35h0.17v-0.35H691.35z M691.52,580.17v0.54c0.21,0,0.32-0.13,0.32-0.39
			L691.52,580.17z M692.33,565.62c0,0.46-0.21,0.69-0.63,0.69v0.19h0.8l0.14-0.89H692.33z M692.5,572.34h0.14v-0.15
			c-0.21-0.49-0.53-0.73-0.95-0.73C691.77,571.76,692.04,572.05,692.5,572.34z M692.5,589.94c0-0.23-0.12-0.35-0.35-0.35h-0.14
			c-0.21,0.03-0.32,0.14-0.32,0.35H692.5z M692.01,569.67v0.19h0.31v-0.19H692.01z M692.01,576.62v0.15c0.35,0,0.62,0.06,0.8,0.19
			v-0.35c0-0.23-0.11-0.35-0.32-0.35C692.5,576.51,692.34,576.62,692.01,576.62z M692.15,578.94v0.35h0.49v-0.35
			c0-0.26-0.11-0.39-0.32-0.39L692.15,578.94z M692.33,588.51v0.7h0.17v-0.7H692.33z M692.5,579.82v0.15c0.07,0,0.22,0.06,0.46,0.19
			v-0.35c0-0.26-0.1-0.39-0.31-0.39L692.5,579.82z M692.96,587.81l-0.14,0.35c0.42,0.64,0.63,1.23,0.63,1.78h0.8
			c0-0.36,0.16-0.54,0.49-0.54l0.8,0.54l0.18-0.35v-0.19c-0.33,0-0.65-0.29-0.98-0.89c0,0.36-0.1,0.54-0.31,0.54h-0.67
			c-0.21,0-0.31-0.12-0.31-0.35l0.66-0.89l-0.8,0.15L692.96,587.81z M692.96,586.73v0.19c0.12,0.26,0.17,0.42,0.17,0.5h0.17v-0.15
			c-0.12-0.26-0.17-0.44-0.17-0.54H692.96z M693.94,584.26v0.7c0.47,0,0.79,0.06,0.98,0.19v-0.39c-0.33,0-0.49-0.17-0.49-0.5H693.94
			z M694.43,563.46v0.39c0.21,0,0.31-0.13,0.31-0.39H694.43z M694.57,533.82h0.17c0.14,0,0.3-0.18,0.49-0.54h-0.32
			c-0.23,0.03-0.35,0.15-0.35,0.39V533.82z M694.74,529.23h0.63l-0.14-0.39c-0.23,0.13-0.4,0.19-0.49,0.19V529.23z M694.92,587.27
			l0.32,0.54c-0.19,0.1-0.35,0.15-0.49,0.15v0.19h0.63c0-0.39,0.06-0.68,0.17-0.89H694.92z M694.92,526.18v0.39
			c0.05,0.23,0.15,0.35,0.32,0.35h0.31v-0.54L694.92,526.18z M695.86,527.96v0.39h0.17v-0.39H695.86z M696.67,589.39v0.54h0.67
			c0-0.15-0.16-0.33-0.49-0.54H696.67z M697.79,525.68v0.15h0.35v-0.15H697.79z M697.96,526.03l-0.17,1.04h0.35v-1.04H697.96z
			 M697.96,534.17v17.95h1.43c2.92,0,4.37-1.25,4.37-3.74v-9.22c0-3.32-0.86-4.98-2.59-4.98H697.96z M697.96,563.46v17.95h3.39
			c1.61,0,2.41-1.59,2.41-4.79v-8.53c0-3.09-1.24-4.63-3.71-4.63H697.96z M698.45,586.73v0.35h0.14v-0.35H698.45z M698.76,526.72
			c-0.12,0.26-0.17,0.44-0.17,0.54h0.35c0-0.39,0.21-0.86,0.63-1.43v-0.15h-0.49c-0.14,0-0.3,0.23-0.49,0.69L698.76,526.72z
			 M698.76,585.65v0.19h0.49v-0.19H698.76z M699.88,530.81v0.35h0.17v-0.35H699.88z M700.55,526.57v0.35
			c0.05,0.23,0.15,0.35,0.31,0.35c0.23-0.13,0.4-0.19,0.49-0.19c0-0.18-0.16-0.35-0.49-0.5H700.55z M700.86,530.46l0.31-0.19
			c0.65,0.13,1.08,0.19,1.29,0.19l0.32-0.89h-0.49c-0.47,0.36-0.94,0.54-1.43,0.54V530.46z M701,525.68v0.35
			c0.54,0,0.92,0.12,1.16,0.35v-0.54h-0.8L701,525.68z M701,527.61v0.19h0.35v-0.19H701z M702.47,527.96h0.14v-0.15l-0.31-0.73
			c-0.19,0.13-0.4,0.19-0.63,0.19C701.67,527.42,701.94,527.65,702.47,527.96z M702.96,528.34v0.35l0.45-0.35
			c0,0.13,0.16,0.3,0.49,0.5h0.17c-0.21-0.28-0.31-0.51-0.31-0.7L702.96,528.34z M704.22,526.18c0,0.72-0.05,1.14-0.14,1.27h0.49
			l-0.17-1.27H704.22z M705.83,527.45v-0.19c-0.21-0.31-0.31-0.54-0.31-0.69h-0.31c-0.16,0-0.33,0.17-0.49,0.5L705.83,527.45z
			 M704.71,530.12v0.15h0.31v-0.15H704.71z M704.71,532.59h0.49v-0.54c-0.23,0.13-0.4,0.19-0.49,0.19V532.59z M704.89,531.51h0.14
			c0.16,0,0.39-0.23,0.67-0.69h-0.17c-0.42,0.18-0.63,0.36-0.63,0.54V531.51z M707.13,536.68v0.35h0.31v-0.35H707.13z
			 M707.13,560.64v0.35h0.17v-0.35H707.13z M707.44,527.8v0.15h0.35v-0.15H707.44z M707.79,540.38v0.19h0.31v-0.19H707.79z
			 M708.25,531.7v0.35h0.66v-0.35H708.25z M708.25,539.5c0.02,0.26,0.14,0.39,0.35,0.39l0.14-0.39H708.25z M708.25,577.86h0.35
			c0-0.23-0.12-0.35-0.35-0.35V577.86z M708.42,581.06h0.49v-0.19c-0.14,0-0.3-0.05-0.49-0.15V581.06z M708.91,528.84v-0.35
			c-0.21,0.03-0.31,0.14-0.31,0.35H708.91z M708.91,574.85c0.05,0.23,0.15,0.35,0.32,0.35h0.49c0-0.21-0.27-0.39-0.8-0.54V574.85z
			 M709.23,532.24v0.15h0.31v-0.15H709.23z M709.23,539.69v0.19h0.31v-0.19H709.23z M709.4,578.05c0.05,0.23,0.15,0.35,0.31,0.35
			h0.14v-0.35c-0.07,0-0.22-0.06-0.46-0.19V578.05z M709.54,580.33h0.67v-0.35c-0.19,0.13-0.41,0.19-0.67,0.19V580.33z
			 M709.72,568.29h0.63l0.17-0.39v-0.15c-0.28,0.23-0.55,0.35-0.8,0.35V568.29z M710.21,563.11c0,0.1-0.06,0.28-0.17,0.54h0.31
			v-0.54H710.21z M710.03,575.19v0.35h0.17v-0.35H710.03z M710.03,577.16v0.15c0.05,0.23,0.15,0.35,0.31,0.35v-0.5H710.03z
			 M710.03,582.83v0.15h0.63v-0.15H710.03z M710.35,569.52l0.17,0.35c0.54-0.23,0.91-0.35,1.12-0.35c0-0.15-0.16-0.33-0.49-0.54
			C711.15,569.34,710.88,569.52,710.35,569.52z M710.52,536.14v0.35h0.14v-0.35H710.52z M710.66,538.11
			c0.05,0.23,0.16,0.35,0.35,0.35l0.14-0.35H710.66z M711.01,565.43v0.19h0.31v-0.19H711.01z M711.33,573.42v0.35h0.14v-0.35H711.33
			z"/>
		<path d="M727.84,521.74h13.82c0.54,0,0.97,2.07,1.29,6.21c3.83,25.7,6.67,47.25,8.54,64.64c-0.21,0.75-0.48,1.16-0.8,1.24h-10.78
			c-0.63,0-1.12-2.6-1.47-7.8c-0.56-4.5-0.93-6.75-1.12-6.75h-5.46c-0.93,9.57-1.63,14.36-2.1,14.36c-0.19,0.13-0.41,0.19-0.67,0.19
			h-10.46c-0.14,0-0.35-0.23-0.63-0.69c1.63-15.59,4.37-37.14,8.22-64.64c0.56-3.81,0.98-5.99,1.26-6.56L727.84,521.74z
			 M723.47,578.74v0.35h0.17v-0.35H723.47z M724.13,582.99v0.19c0,0.36,0.43,0.59,1.29,0.69v-0.35c-0.16,0-0.43-0.18-0.8-0.54
			H724.13z M725.08,569.67v0.19h0.35v-0.19H725.08z M725.08,574.65h0.35v-0.15c0-0.26-0.12-0.39-0.35-0.39V574.65z M725.88,579.09
			l0.17-0.35v-0.19c-0.23,0.13-0.4,0.19-0.49,0.19C725.61,578.97,725.72,579.09,725.88,579.09z M726.54,576.08v0.19h0.32v-0.19
			H726.54z M726.68,578.94l-0.14,0.89c0.21,0,0.37-0.3,0.49-0.89H726.68z M726.86,586.19c0.05,0.23,0.15,0.35,0.31,0.35h0.17v-0.35
			H726.86z M726.86,587.81v0.15h0.31v-0.15H726.86z M727.03,589.2c0,0.1-0.06,0.28-0.17,0.54h0.49v-0.54H727.03z M727.84,548.22
			v-0.54c-0.54,0.28-0.8,0.51-0.8,0.69C727.2,548.27,727.47,548.22,727.84,548.22z M727.35,546.79v0.35h0.14v-0.35H727.35z
			 M727.49,548.91v1.08h0.17c0-0.23,0.06-0.35,0.17-0.35c-0.12-0.21-0.17-0.45-0.17-0.73H727.49z M727.98,578.94v0.35h0.17v-0.35
			H727.98z M728.47,539.15v0.35c0.21,0,0.31-0.12,0.31-0.35H728.47z M728.47,542.54c0.05,0.23,0.15,0.35,0.31,0.35v-0.35H728.47z
			 M728.47,545.36v0.73h0.17c0.23-0.26,0.44-0.39,0.63-0.39v-0.35H728.47z M728.64,547.87v0.5h0.14c0-0.08,0.06-0.24,0.18-0.5
			H728.64z M729.1,574.85h0.35c0-0.23-0.12-0.35-0.35-0.35V574.85z M730.25,531.7l0.32,0.54v0.15c0,0.26-0.11,0.39-0.32,0.39h-0.17
			l-0.49-0.39v0.89l0.49-0.35l1.12,0.19v-0.19c-0.33,0-0.49-0.12-0.49-0.35v-0.89H730.25z M729.76,531.35h0.31l-0.17-0.35l0.17-1.08
			c-0.21,0.03-0.31,0.14-0.31,0.35V531.35z M729.76,574.85v0.35h0.14v-0.35H729.76z M731.2,526.72c-0.44,1.18-0.76,1.78-0.94,1.78
			h-0.17v0.73h0.17c0.02-0.49,0.17-0.73,0.46-0.73h0.17l0.49,0.35h0.14l0.17-0.7l-0.31,0.19h-0.18v-0.39c0-0.1,0.06-0.15,0.18-0.15
			l-0.18-0.35l0.32-0.54L731.2,526.72z M730.08,527.07v0.54c0.28-0.23,0.49-0.35,0.63-0.35v-0.19H730.08z M731.06,525.68v0.15
			l0.8,0.19v-0.35H731.06z M731.06,546.98v0.15h0.32v-0.15H731.06z M731.2,534.71c0.05,0.23,0.15,0.35,0.32,0.35l0.17-0.35H731.2z
			 M731.37,544.47v0.35h0.14v-0.35H731.37z M733.12,525.68c0,1.06-0.37,1.58-1.12,1.58l-0.49,0.7h0.17c0.19-0.1,0.35-0.15,0.49-0.15
			l0.31,0.15c0.42-0.23,0.79-0.35,1.12-0.35c0.12,0.21,0.18,0.57,0.18,1.08h0.49v-0.54c0-0.36-0.12-0.72-0.35-1.08
			c0.12-0.26,0.17-0.42,0.17-0.5h-0.17l-0.46,0.35l-0.17-0.35v-0.19l0.31-0.54l-0.31-0.15H733.12z M732,530.12
			c0.21,0,0.32,0.23,0.32,0.69h0.17c0-0.36,0.16-0.54,0.49-0.54v-0.15c-0.3,0-0.57-0.13-0.8-0.39L732,530.12z M732,573.22v0.19h0.32
			v-0.19H732z M732.18,572.72h0.31v-0.54c-0.21,0.03-0.31,0.14-0.31,0.35V572.72z M734.59,547.14c-0.09,2.8-0.85,9.38-2.27,19.72
			h4.69c-1.03-8.08-1.78-14.65-2.27-19.72H734.59z M732.49,531.7c0.21,0.26,0.31,0.55,0.31,0.89h0.18v-0.89H732.49z M732.49,540.23
			v0.54h0.17v-0.54H732.49z M733.47,538.45l0.14-0.35v-0.19h-0.14c-0.23,0.03-0.35,0.14-0.35,0.35L733.47,538.45z M733.79,529.23
			v0.15h0.31v-0.15H733.79z M733.79,537.03c0.09,0.21,0.14,0.39,0.14,0.54h0.17v-0.73L733.79,537.03z M734.28,533.47v0.35h0.63
			v-0.15L734.28,533.47z M734.59,528.69l-0.18,2.12h0.32l0.35-2.12H734.59z M735.08,525.68v1.04c0.42,0,0.63,0.3,0.63,0.89
			c-0.12,0-0.17,0.06-0.17,0.19c0.37,0.36,0.64,0.54,0.8,0.54h0.17v-0.19c-0.3,0-0.51-0.29-0.63-0.89l0.32-0.69
			c-0.33,0-0.49-0.13-0.49-0.39v-0.15l0.17-0.35H735.08z M735.08,527.26v0.35h0.14v-0.35H735.08z M735.54,534.01l-0.14,0.69
			c0.14,0,0.3-0.18,0.49-0.54v-0.15H735.54z M735.54,575v0.39h0.17V575H735.54z M736.2,525.68c0.09,0.18,0.14,0.41,0.14,0.69h0.17
			v-0.69H736.2z M736.69,528.69v0.35h0.63c0-0.23-0.1-0.35-0.31-0.35H736.69z M736.69,535.25h0.46v-0.19
			c-0.12,0-0.27-0.05-0.46-0.15V535.25z M736.83,526.57v0.5h0.31v-0.5H736.83z M736.83,527.8v0.15h0.31v-0.15H736.83z
			 M737.15,526.37c0.23,0,0.35-0.12,0.35-0.35s-0.12-0.35-0.35-0.35V526.37z M737.32,529.73v0.19h0.32v-0.19H737.32z M737.32,536.48
			l0.63,0.19v-0.35c-0.07,0-0.22-0.06-0.46-0.19L737.32,536.48z M737.5,532.05h0.46v-0.35c-0.23,0.13-0.38,0.19-0.46,0.19V532.05z
			 M737.81,535.6v0.19h0.31v-0.19H737.81z M738.3,529.23c0,0.23-0.12,0.35-0.35,0.35v0.15h0.35l0.32-0.5H738.3z M738.13,531.01h0.32
			c0-0.26-0.11-0.39-0.32-0.39V531.01z M738.13,543.93v0.39h0.17v-0.39H738.13z M738.93,526.03c0,0.59-0.21,0.89-0.63,0.89
			c0.21,0.26,0.32,0.85,0.32,1.77h0.14c0.12-0.59,0.28-0.89,0.49-0.89c-0.09-0.39-0.14-0.98-0.14-1.78H738.93z M738.44,539.15v0.35
			h0.17v-0.35H738.44z M739.1,557.63v-0.39c-0.23,0.03-0.35,0.15-0.35,0.39H739.1z M738.93,530.81l0.8-0.19v-0.35
			c-0.33,0-0.49-0.23-0.49-0.7c-0.21,0.03-0.32,0.14-0.32,0.35V530.81z M739.25,533.47v0.54h0.17v-0.54H739.25z M739.73,531.35v0.54
			h0.17v-0.54H739.73z M740.36,570.56v0.19h0.35v-0.19H740.36z M740.54,534.71v0.35h0.17v-0.35H740.54z M741.34,582.1
			c0.12,0.31,0.17,0.49,0.17,0.54c-0.12,0.26-0.17,0.44-0.17,0.54c0.14,0,0.3-0.18,0.49-0.54c-0.12-0.26-0.17-0.44-0.17-0.54H741.34
			z M741.97,573.42v0.19h0.35v-0.19H741.97z M742.64,575v0.39h0.14V575H742.64z M742.95,584.76c0.02,0.26,0.13,0.39,0.32,0.39v-0.19
			c0-0.23-0.11-0.35-0.32-0.35V584.76z M743.13,585.84h0.32v-0.19c0-0.23-0.11-0.35-0.32-0.35V585.84z M743.76,585.65
			c0.02,0.26,0.13,0.39,0.32,0.39c0-0.18,0.1-0.42,0.31-0.73c-0.14,0-0.35-0.12-0.63-0.35V585.65z M743.93,578.94
			c0.09,0.21,0.14,0.37,0.14,0.5h0.31v-0.16c0-0.23-0.1-0.35-0.31-0.35H743.93z M743.93,587.62v0.19h0.32v-0.19H743.93z
			 M745.19,586.39c0,0.36-0.21,0.54-0.63,0.54c0,0.13,0.16,0.3,0.49,0.5c0.23,0,0.4-0.35,0.49-1.04H745.19z M745.05,580.17v0.15
			h0.31v-0.15H745.05z M745.19,584.61v0.69h0.67v-0.15c0-0.15-0.16-0.33-0.49-0.54H745.19z M745.68,587.43v0.54h0.17
			c0-0.13,0.05-0.31,0.14-0.54H745.68z M746.17,587.43v0.19h0.32v-0.19H746.17z M746.35,586.04v0.15c0.09,0.21,0.14,0.39,0.14,0.54
			h0.31v-0.35c0-0.23-0.1-0.35-0.31-0.35H746.35z M746.66,588.31v0.19h0.31v-0.19H746.66z M746.66,589.59v0.35h0.14v-0.35H746.66z"
			/>
		<path d="M759.29,521.74h10.64c0.54,0.31,0.8,0.79,0.8,1.43v57.35h13.19c0.42,0.15,0.63,0.68,0.63,1.58v9.96
			c0,0.9-0.27,1.49-0.8,1.78h-24.46l-0.63-0.54c-0.12-7.54-0.17-12.86-0.17-15.98v-36.04c0-3.65,0.06-9.98,0.17-18.99L759.29,521.74
			z M762.02,570.95v0.5h0.17v-0.5H762.02z M762.02,574.11v0.19c0.26,0,0.48,0.06,0.66,0.19l0.14-0.39c0-0.18-0.16-0.35-0.49-0.5
			L762.02,574.11z M762.69,579.98c-0.23,0-0.35-0.12-0.35-0.35c0.12-0.26,0.17-0.44,0.17-0.54c-0.14,0-0.3,0.18-0.49,0.54v0.19h0.31
			v0.69h-0.31c0,0.1,0.06,0.28,0.17,0.54l-0.17,0.89h0.31v-1.08c0.79-0.95,1.39-1.43,1.78-1.43c-0.12-0.26-0.17-0.42-0.17-0.5
			c-0.51,0.69-0.83,1.04-0.94,1.04H762.69z M762.02,583.88v0.54h0.17v-0.54H762.02z M762.34,526.18l-0.14,0.73
			c0.21,0,0.31-0.18,0.31-0.54v-0.19H762.34z M762.2,571.64c0.09,0.21,0.14,0.39,0.14,0.54h0.17c0.21,0,0.32-0.12,0.32-0.35
			L762.2,571.64z M762.2,584.76v0.39h0.14v-0.39H762.2z M762.34,525.68v0.35c0.23,0,0.35-0.12,0.35-0.35H762.34z M762.34,588.31
			v0.19c0.12,0.26,0.17,0.44,0.17,0.54h0.32c-0.21-0.31-0.32-0.55-0.32-0.73H762.34z M763.32,545.36c0,0.59-0.21,0.89-0.63,0.89
			c0.05,0.23,0.15,0.35,0.32,0.35c0.07,0,0.34-0.41,0.8-1.23H763.32z M762.69,560.99l0.8,0.19l0.14-0.39l-0.49-0.35H763
			c-0.21,0.03-0.32,0.14-0.32,0.35V560.99z M763,578.2h0.14v-1.04c-0.21,0.03-0.31,0.14-0.31,0.35
			C762.94,577.72,763,577.95,763,578.2z M763.32,572.18v0.15h0.32v-0.15H763.32z M763.32,576.43v0.54h0.17v-0.54H763.32z
			 M763.49,534.71v0.19h0.32v-0.19H763.49z M763.49,538.99v0.15c0.09,0.21,0.14,0.39,0.14,0.54h0.17v-0.54L763.49,538.99z
			 M763.49,543.78v0.15c0.3,0,0.46,0.18,0.46,0.54c0.21-0.1,0.37-0.15,0.49-0.15c0-0.16-0.16-0.33-0.49-0.54H763.49z M763.63,528.34
			v0.15h0.31v-0.15H763.63z M763.63,573.61v0.35h0.17v-0.35H763.63z M763.81,526.91v0.15h0.31v-0.15H763.81z M763.81,547.33v0.35
			h0.14v-0.35H763.81z M763.81,563.46h0.31v-0.5c-0.21,0.03-0.31,0.14-0.31,0.35V563.46z M764.12,580.71v0.15
			c0,0.15,0.16,0.33,0.49,0.54c0-0.36,0.16-0.54,0.49-0.54v-0.35h-0.17l-0.31,0.19c0-0.26-0.11-0.39-0.32-0.39L764.12,580.71z
			 M764.3,546.79v0.19h0.32v-0.19H764.3z M764.44,554.08v0.15h0.31v-0.15H764.44z M764.44,555.86c0.33,0,0.49,0.23,0.49,0.69h0.49
			c0-0.46,0.16-0.69,0.49-0.69h0.14v-0.19h-0.49c-0.19,0.13-0.4,0.19-0.63,0.19c0-0.26-0.1-0.39-0.31-0.39L764.44,555.86z
			 M764.75,579.09c0,0.18-0.1,0.42-0.31,0.73v0.35l0.66,0.15l0.32-0.5v-0.73H764.75z M764.61,525.83v0.35h0.14v-0.35H764.61z
			 M764.61,526.91v0.15c0.02,0.26,0.13,0.39,0.31,0.39h0.17c0-0.15,0.05-0.33,0.14-0.54H764.61z M764.61,530.12v0.15h0.31v-0.15
			H764.61z M764.75,546.25c0.16-0.1,0.38-0.15,0.67-0.15v-0.39h-0.17c-0.42,0.18-0.63,0.36-0.63,0.54H764.75z M764.75,559.02
			c0,0.26-0.05,0.39-0.14,0.39c0,0.33,0.37,0.57,1.12,0.7v-0.35c-0.54,0-0.8-0.24-0.8-0.73H764.75z M764.93,563.46v0.39h0.49v-0.39
			H764.93z M765.1,562.23v0.35h0.32v-0.35H765.1z M765.24,573.22v0.19h0.49v-0.19H765.24z M765.42,542.7v0.54h0.14v-0.54H765.42z
			 M765.42,554.43v0.16h0.63v-0.16H765.42z M765.42,576.08c0.05,0.23,0.15,0.35,0.31,0.35h0.17c0-0.15-0.16-0.33-0.49-0.54V576.08z
			 M765.42,584.96v0.54h0.14v-0.54H765.42z M765.73,538.99l-0.17,0.69h0.35v-0.69H765.73z M765.91,581.95c0,0.21-0.12,0.44-0.35,0.7
			v0.35h0.67l-0.17-1.04H765.91z M765.56,587.81v0.35c0.3,0,0.57,0.12,0.8,0.35v-0.35c0-0.18-0.21-0.42-0.63-0.73L765.56,587.81z
			 M765.73,527.61v0.19h0.32v-0.19H765.73z M766.22,526.57v-0.39c-0.21,0.03-0.32,0.15-0.32,0.39H766.22z M765.91,573.42v0.54h0.14
			v-0.54H765.91z M765.91,578.4v0.15c0.3,0,0.46,0.3,0.46,0.89h0.17c0-0.08,0.06-0.25,0.17-0.5l-0.66-0.54H765.91z M766.05,549.99
			v0.15h0.31v-0.15H766.05z M766.05,577.16c0.05,0.23,0.15,0.35,0.31,0.35l0.17-0.35H766.05z M766.22,587.27l0.8-0.19
			c0-0.23-0.11-0.35-0.32-0.35h-0.17c-0.14,0-0.3,0.18-0.49,0.54H766.22z M766.22,548.76v0.35h0.14v-0.35H766.22z M766.22,558.87
			c0.09,0.21,0.14,0.39,0.14,0.54l-0.14,0.89h0.14c0.44-0.1,0.67-0.53,0.67-1.27l-0.32-0.15H766.22z M766.22,564.89v0.19h0.31v-0.19
			H766.22z M766.36,544.82c0.02,0.26,0.14,0.39,0.35,0.39v-0.39H766.36z M766.54,567.55l-0.17,0.89l0.35,0.19h0.14v-0.19l-0.14-0.35
			c0.09-0.21,0.14-0.39,0.14-0.54H766.54z M766.54,576.62v0.35c0.21,0,0.32-0.12,0.32-0.35H766.54z M766.71,548.37v0.19
			c0.07,0,0.22,0.06,0.46,0.19v-0.39H766.71z M766.71,581.75v0.19c0.05,0.23,0.15,0.35,0.32,0.35v-0.54H766.71z M767.17,547.48v-0.5
			c-0.21,0.03-0.31,0.14-0.31,0.35L767.17,547.48z M766.85,550.88v0.35c0.21,0,0.31-0.12,0.31-0.35H766.85z M767.03,584.61
			c0.09,0.21,0.14,0.39,0.14,0.54h0.35v-0.19c0-0.23-0.12-0.35-0.35-0.35H767.03z M767.83,584.42h0.14c0-0.05,0.06-0.23,0.17-0.54
			l-0.31-0.15c-0.21,0.03-0.31,0.14-0.31,0.35C767.56,584.3,767.67,584.42,767.83,584.42z M767.83,589.05v0.35h0.14v-0.35H767.83z
			 M767.97,585.84v0.19h0.35v-0.19H767.97z M768.32,588.16v0.35h0.14v-0.35H768.32z M769.44,585.65c0,0.1-0.06,0.28-0.17,0.54h0.31
			v-0.54H769.44z M773.46,585.65v-0.35c-0.21,0.03-0.31,0.14-0.31,0.35H773.46z M777,584.96v0.19h0.31v-0.19H777z M777.31,585.3
			v0.35h0.17v-0.35H777.31z M779.73,589.39v0.19h0.17c0-0.26,0.11-0.39,0.32-0.39c0-0.23-0.11-0.35-0.32-0.35
			C779.9,588.96,779.84,589.14,779.73,589.39z"/>
		<path d="M789.84,521.74h10.64c0.54,0.31,0.8,0.79,0.8,1.43v57.35h13.19c0.42,0.15,0.63,0.68,0.63,1.58v9.96
			c0,0.9-0.27,1.49-0.8,1.78h-24.46l-0.63-0.54c-0.12-7.54-0.17-12.86-0.17-15.98v-36.04c0-3.65,0.06-9.98,0.17-18.99L789.84,521.74
			z M792.57,570.95v0.5h0.17v-0.5H792.57z M792.57,574.11v0.19c0.26,0,0.48,0.06,0.66,0.19l0.14-0.39c0-0.18-0.16-0.35-0.49-0.5
			L792.57,574.11z M793.23,579.98c-0.23,0-0.35-0.12-0.35-0.35c0.12-0.26,0.17-0.44,0.17-0.54c-0.14,0-0.3,0.18-0.49,0.54v0.19h0.31
			v0.69h-0.31c0,0.1,0.06,0.28,0.17,0.54l-0.17,0.89h0.31v-1.08c0.79-0.95,1.39-1.43,1.78-1.43c-0.12-0.26-0.17-0.42-0.17-0.5
			c-0.51,0.69-0.83,1.04-0.94,1.04H793.23z M792.57,583.88v0.54h0.17v-0.54H792.57z M792.88,526.18l-0.14,0.73
			c0.21,0,0.31-0.18,0.31-0.54v-0.19H792.88z M792.74,571.64c0.09,0.21,0.14,0.39,0.14,0.54h0.17c0.21,0,0.32-0.12,0.32-0.35
			L792.74,571.64z M792.74,584.76v0.39h0.14v-0.39H792.74z M792.88,525.68v0.35c0.23,0,0.35-0.12,0.35-0.35H792.88z M792.88,588.31
			v0.19c0.12,0.26,0.17,0.44,0.17,0.54h0.32c-0.21-0.31-0.32-0.55-0.32-0.73H792.88z M793.86,545.36c0,0.59-0.21,0.89-0.63,0.89
			c0.05,0.23,0.15,0.35,0.32,0.35c0.07,0,0.34-0.41,0.8-1.23H793.86z M793.23,560.99l0.8,0.19l0.14-0.39l-0.49-0.35h-0.14
			c-0.21,0.03-0.32,0.14-0.32,0.35V560.99z M793.54,578.2h0.14v-1.04c-0.21,0.03-0.31,0.14-0.31,0.35
			C793.49,577.72,793.54,577.95,793.54,578.2z M793.86,572.18v0.15h0.32v-0.15H793.86z M793.86,576.43v0.54h0.17v-0.54H793.86z
			 M794.03,534.71v0.19h0.32v-0.19H794.03z M794.03,538.99v0.15c0.09,0.21,0.14,0.39,0.14,0.54h0.17v-0.54L794.03,538.99z
			 M794.03,543.78v0.15c0.3,0,0.46,0.18,0.46,0.54c0.21-0.1,0.37-0.15,0.49-0.15c0-0.16-0.16-0.33-0.49-0.54H794.03z M794.17,528.34
			v0.15h0.31v-0.15H794.17z M794.17,573.61v0.35h0.17v-0.35H794.17z M794.35,526.91v0.15h0.31v-0.15H794.35z M794.35,547.33v0.35
			h0.14v-0.35H794.35z M794.35,563.46h0.31v-0.5c-0.21,0.03-0.31,0.14-0.31,0.35V563.46z M794.66,580.71v0.15
			c0,0.15,0.16,0.33,0.49,0.54c0-0.36,0.16-0.54,0.49-0.54v-0.35h-0.17l-0.31,0.19c0-0.26-0.11-0.39-0.32-0.39L794.66,580.71z
			 M794.84,546.79v0.19h0.32v-0.19H794.84z M794.98,554.08v0.15h0.31v-0.15H794.98z M794.98,555.86c0.33,0,0.49,0.23,0.49,0.69h0.49
			c0-0.46,0.16-0.69,0.49-0.69h0.14v-0.19h-0.49c-0.19,0.13-0.4,0.19-0.63,0.19c0-0.26-0.1-0.39-0.31-0.39L794.98,555.86z
			 M795.29,579.09c0,0.18-0.1,0.42-0.31,0.73v0.35l0.66,0.15l0.32-0.5v-0.73H795.29z M795.15,525.83v0.35h0.14v-0.35H795.15z
			 M795.15,526.91v0.15c0.02,0.26,0.13,0.39,0.31,0.39h0.17c0-0.15,0.05-0.33,0.14-0.54H795.15z M795.15,530.12v0.15h0.31v-0.15
			H795.15z M795.29,546.25c0.16-0.1,0.38-0.15,0.67-0.15v-0.39h-0.17c-0.42,0.18-0.63,0.36-0.63,0.54H795.29z M795.29,559.02
			c0,0.26-0.05,0.39-0.14,0.39c0,0.33,0.37,0.57,1.12,0.7v-0.35c-0.54,0-0.8-0.24-0.8-0.73H795.29z M795.47,563.46v0.39h0.49v-0.39
			H795.47z M795.64,562.23v0.35h0.32v-0.35H795.64z M795.78,573.22v0.19h0.49v-0.19H795.78z M795.96,542.7v0.54h0.14v-0.54H795.96z
			 M795.96,554.43v0.16h0.63v-0.16H795.96z M795.96,576.08c0.05,0.23,0.15,0.35,0.31,0.35h0.17c0-0.15-0.16-0.33-0.49-0.54V576.08z
			 M795.96,584.96v0.54h0.14v-0.54H795.96z M796.27,538.99l-0.17,0.69h0.35v-0.69H796.27z M796.45,581.95c0,0.21-0.12,0.44-0.35,0.7
			v0.35h0.67l-0.17-1.04H796.45z M796.1,587.81v0.35c0.3,0,0.57,0.12,0.8,0.35v-0.35c0-0.18-0.21-0.42-0.63-0.73L796.1,587.81z
			 M796.27,527.61v0.19h0.32v-0.19H796.27z M796.76,526.57v-0.39c-0.21,0.03-0.32,0.15-0.32,0.39H796.76z M796.45,573.42v0.54h0.14
			v-0.54H796.45z M796.45,578.4v0.15c0.3,0,0.46,0.3,0.46,0.89h0.17c0-0.08,0.06-0.25,0.17-0.5l-0.66-0.54H796.45z M796.59,549.99
			v0.15h0.31v-0.15H796.59z M796.59,577.16c0.05,0.23,0.15,0.35,0.31,0.35l0.17-0.35H796.59z M796.76,587.27l0.8-0.19
			c0-0.23-0.11-0.35-0.32-0.35h-0.17c-0.14,0-0.3,0.18-0.49,0.54H796.76z M796.76,548.76v0.35h0.14v-0.35H796.76z M796.76,558.87
			c0.09,0.21,0.14,0.39,0.14,0.54l-0.14,0.89h0.14c0.44-0.1,0.67-0.53,0.67-1.27l-0.32-0.15H796.76z M796.76,564.89v0.19h0.31v-0.19
			H796.76z M796.9,544.82c0.02,0.26,0.14,0.39,0.35,0.39v-0.39H796.9z M797.08,567.55l-0.17,0.89l0.35,0.19h0.14v-0.19l-0.14-0.35
			c0.09-0.21,0.14-0.39,0.14-0.54H797.08z M797.08,576.62v0.35c0.21,0,0.32-0.12,0.32-0.35H797.08z M797.25,548.37v0.19
			c0.07,0,0.22,0.06,0.46,0.19v-0.39H797.25z M797.25,581.75v0.19c0.05,0.23,0.15,0.35,0.32,0.35v-0.54H797.25z M797.71,547.48v-0.5
			c-0.21,0.03-0.31,0.14-0.31,0.35L797.71,547.48z M797.39,550.88v0.35c0.21,0,0.31-0.12,0.31-0.35H797.39z M797.57,584.61
			c0.09,0.21,0.14,0.39,0.14,0.54h0.35v-0.19c0-0.23-0.12-0.35-0.35-0.35H797.57z M798.37,584.42h0.14c0-0.05,0.06-0.23,0.17-0.54
			l-0.31-0.15c-0.21,0.03-0.31,0.14-0.31,0.35C798.1,584.3,798.21,584.42,798.37,584.42z M798.37,589.05v0.35h0.14v-0.35H798.37z
			 M798.51,585.84v0.19h0.35v-0.19H798.51z M798.86,588.16v0.35H799v-0.35H798.86z M799.98,585.65c0,0.1-0.06,0.28-0.17,0.54h0.31
			v-0.54H799.98z M804.01,585.65v-0.35c-0.21,0.03-0.31,0.14-0.31,0.35H804.01z M807.54,584.96v0.19h0.31v-0.19H807.54z
			 M807.85,585.3v0.35h0.17v-0.35H807.85z M810.27,589.39v0.19h0.17c0-0.26,0.11-0.39,0.32-0.39c0-0.23-0.11-0.35-0.32-0.35
			C810.44,588.96,810.38,589.14,810.27,589.39z"/>
	</g>
</g>
</svg>
